<svg xmlns="http://www.w3.org/2000/svg"><defs><font id="PlayfairDisplay" horiz-adv-x="578"><font-face font-family="Playfair Display" panose-1="0 0 5 0 0 0 0 0 0 0" ascent="1082" descent="-251" alphabetic="0"/><glyph glyph-name="space" horiz-adv-x="253"/><glyph unicode="!" glyph-name="exclam" horiz-adv-x="263" d="M115 278l15 79 32 186q3 20 15 89t24 111q5 19 17 29t28 10q22 0 34-11t12-29q0-13-4-22-13-45-56-161-39-103-68-189t-52-174l-18 3q21 79 36 158zM7 67l22 23 52 24q23 0 37-15t14-37q0-30-23-53T57-14Q35-14 21 0T7 37q0 30 22 53z"/><glyph unicode="&quot;" glyph-name="quotedbl" horiz-adv-x="296" d="M233 679l-7-18-26-51q-26-45-46-92h-14q7 53 11 100 3 43 9 70 5 21 16 31t26 11q16 0 23-9t8-24q0-18-7-36zm109 0l-7-18-26-51q-26-45-46-92h-14q7 53 11 100 3 43 9 70 5 21 16 31t26 11q16 0 23-9t8-24q0-18-7-36z"/><glyph unicode="#" glyph-name="numbersign" horiz-adv-x="639" d="M481 434l-77-167h143l-10-20H395l-68-146h-24l68 146H208l-68-146h-24l68 146H37l9 20h147l77 167H124l8 20h147l69 148h24l-69-148h163l69 148h24l-69-148h143l-8-20H481zm-24 0H294l-77-167h163l77 167z"/><glyph unicode="$" glyph-name="dollar" horiz-adv-x="551" d="M537 649l16-29 17-61q0-32-16-55t-44-24q-25 0-38 19t-13 46q0 29 10 53t29 53q-22 22-57 37l-87-314q55-51 85-95t30-97q0-60-32-102t-82-65-109-28l-33-119h-22l33 118h-8q-42 0-72 9l-35-127H87L124 1Q95 12 76 27T53 44Q31 61 16 89T1 149q0 32 16 55t44 24q25 0 38-19t13-46q0-29-10-53T73 57q23-23 57-36l91 330q-41 42-63 82t-23 94q0 83 55 133t134 60l33 120h22l-33-118h9q39 0 71-8l35 126h22l-37-133q20-7 34-16t25-17 13-10q19-15 35-44zm-116 45q-30 9-65 9h-15l-69-249q24-26 64-63l85 303zM216 527l39-53 63 226q-47-9-74-40t-28-84q0-49 39-102zM229 6l74 265q-15 17-48 47l-17 16-88-319q30-9 69-9h10zm137 187l-46 58L252 8q54 7 84 37t30 86q0 62-46 120z"/><glyph unicode="%" glyph-name="percent" horiz-adv-x="766" d="M839 811L6-55-9-42l833 866 15-13zM112 587l27 53 75 87 105 34q53 0 82-27t29-77q0-53-27-106t-74-87-105-34q-53 0-82 27t-30 77q0 53 27 106zm159 156l-30-40-46-94-16-94q0-67 52-67 40 0 70 40t46 94 16 95q0 33-13 49t-39 17q-40 0-70-40zm105-600l27 53 75 87 105 34q53 0 82-27t29-77q0-53-27-106t-74-87-105-34q-53 0-82 27t-30 77q0 53 27 106zm159 156l-30-40-46-94-16-94q0-67 52-67 40 0 70 40t46 94 16 95q0 33-13 49t-39 17q-40 0-70-40z"/><glyph unicode="&amp;" glyph-name="ampersand" horiz-adv-x="817" d="M801 722l33-28 34-86q0-51-29-90t-93-71q-44-22-160-64 73-61 73-150 0-67-40-123T504 20 326-14q-133 0-210 56T38 197q0 88 60 156t155 95q-34 18-52 48t-18 64q0 44 29 76t76 49 93 17q56 0 89-24t34-63q0-36-26-55t-59-20l2 18q28 0 45 14t17 41q0 33-27 53t-70 20q-61 0-101-42t-40-107q0-46 22-83 36 6 63 6 36 0 36-21 0-10-9-15t-22-6q-25 0-69 22-68-20-110-74t-43-123q0-87 69-135t182-48q77 0 140 23t99 65 36 98q0 36-17 71t-50 60l-127-47q-45-17-75-40t-30-59q0-31 24-49t61-18q39 0 64 19t38 40l13-9q-40-66-119-66-46 0-77 23t-31 75q0 58 41 96t125 69l49 18q51 18 112 40t98 41q49 23 76 49t27 62q0 37-28 61t-71 25q-26 0-32-9 10-6 15-16t6-22q0-23-20-40t-46-17q-20 0-32 11t-13 31q0 21 14 37t36 26q32 14 73 14 58 0 91-28z"/><glyph unicode="'" glyph-name="quotesingle" horiz-adv-x="187" d="M233 679l-7-18-26-51q-26-45-46-92h-14q7 53 11 100 3 43 9 70 5 21 16 31t26 11q16 0 23-9t8-24q0-18-7-36z"/><glyph unicode="(" glyph-name="parenleft" horiz-adv-x="361" d="M123-87L81 6 38 223q0 108 56 216t154 203 223 164l10-13Q305 675 210 534t-95-322q0-226 110-381l-18-13Q123-87 81 6z"/><glyph unicode=")" glyph-name="parenright" horiz-adv-x="361" d="M247 711l42-93 43-217q0-108-56-216T122-18t-223-164l-10 13Q65-51 160 90t95 322q0 226-110 381l18 13q84-95 126-188z"/><glyph unicode="*" glyph-name="asterisk" horiz-adv-x="495" d="M512 617v-3q0-12-10-25t-33-24q-19-9-46-17t-58-15l-55-14q45-13 55-16 26-8 49-15t35-16q24-15 24-36 0-13-9-24-11-16-31-16-15 0-33 12-13 8-24 20t-30 36q-21 27-38 46l3-64q2-38 2-52 0-13-2-33-7-28-21-41t-30-13q-11 0-18 7t-8 25q0 10 3 22 3 20 14 44t33 69l20 41h-1q-16-13-29-24t-23-19q-25-21-47-38t-39-27q-22-11-39-11-20 0-27 17-2 6-2 9 0 25 43 49 18 9 45 16t57 16q40 9 56 14-9 3-56 17-33 9-51 15t-31 15q-24 15-24 36 0 14 9 24 11 16 31 16 15 0 33-12 13-8 24-20t31-37q27-34 40-49-2 20-2 28-6 70-6 89 0 20 3 36 6 28 20 41t29 13q12 0 19-8t8-24q0-10-3-22-3-18-11-38t-27-59q-7-14-25-54 11 9 24 19t26 22q24 20 46 37t39 27q22 11 39 11 20 0 27-17 2-6 2-9z"/><glyph unicode="+" glyph-name="plus" horiz-adv-x="585" d="M296 370l67 236h36l-67-236h232l-9-30H323l-67-235h-36l67 235H54l9 30h233z"/><glyph unicode="," glyph-name="comma" horiz-adv-x="252" d="M129 2L90-49l-108-85-5 14q47 29 75 63t31 68Q54-14 31-14 13-14 3-5T-7 21q0 21 13 43t35 36 44 14q22 0 33-17t11-42q0-53-39-104z"/><glyph unicode="-" glyph-name="hyphen" horiz-adv-x="504" d="M429 283l-15-58H53l15 58h361z"/><glyph unicode="." glyph-name="period" horiz-adv-x="244" d="M-1 67l22 23 52 24q23 0 37-15t14-37q0-30-23-53T49-14Q27-14 13 0T-1 37q0 30 22 53z"/><glyph unicode="/" glyph-name="slash" horiz-adv-x="468" d="M508 722h33L-7-14h-33l548 736z"/><glyph unicode="0" glyph-name="zero" horiz-adv-x="565" d="M432 529l40-46 41-131q0-89-43-174T353 40 195-14q-77 0-120 46T31 164q0 89 45 174t121 138 159 53q76 0 116-46zm-149-18l-49-50-80-133-31-173Q123 4 214 4q56 0 103 53t76 137 28 173q0 77-22 110t-62 34q-54 0-103-50z"/><glyph unicode="1" glyph-name="one" horiz-adv-x="342" d="M159 0H72l128 433q-58-33-150-61l3 21q83 25 133 56t108 77h20L159 0z"/><glyph unicode="2" glyph-name="two" horiz-adv-x="503" d="M366 528l36-26 37-73q0-49-39-99t-93-93-129-95q-56-39-75-55 27 0 103-14 78-14 109-14 69 0 69 48 0 37-44 57l13 13q55-26 55-79 0-43-31-73T283-6q-21 0-41 3T193 8q-31 8-55 12t-52 4q-29 0-52-5T-21 0l5 21q11 9 32 23t33 24q86 61 146 110t107 113 46 127q0 41-20 64t-57 24q-36 0-76-24t-68-61-27-76q0-25 13-36t45-12q26 0 46 9t46 32l12-14q-26-25-55-36t-56-12q-31 0-53 15t-22 53q0 44 31 87t84 70 113 27q62 0 98-26z"/><glyph unicode="3" glyph-name="three" horiz-adv-x="485" d="M365 531l36-26 37-73q0-43-31-80t-80-63-96-39q70-2 115-31t45-83q0-86-75-151t-186-99-210-37l5 18q86 5 172 38T240 0t58 143q0 40-22 64t-63 27q-16-7-31-12t-27-5q-22 0-17 15 4 19 48 19l19-1q62 24 104 69t43 100q0 42-22 66t-60 24q-34 0-72-19t-63-50-26-62q0-25 13-36t45-12q33 0 62 15l11-15q-39-21-80-21-31 0-53 15t-22 53q0 36 30 72t80 59 108 23q62 0 98-26z"/><glyph unicode="4" glyph-name="four" horiz-adv-x="515" d="M418 34H285l-47-175h-87l47 175H-51l6 21 436 474h26L300 91h134l-16-57zM213 91l82 307L14 91h199z"/><glyph unicode="5" glyph-name="five" horiz-adv-x="459" d="M439 531q-51-110-137-110-22 0-56 19-3 2-15 7t-23 8-17 1L79 227q32 17 65 25t75 9q77 0 115-31t38-83q0-92-73-157T120-110t-201-38l5 18q81 1 163 33T223-2t54 147q0 40-26 63t-79 23q-52 0-111-27l-10 5 150 309q30 1 65-11 40-14 78-14 57 0 83 45l12-7z"/><glyph unicode="6" glyph-name="six" horiz-adv-x="527" d="M530 702q-96-23-189-105T187 394t-60-257q0-73 18-102t54-29q53 0 94 49t63 120 23 133q0 101-65 101-33 0-64-28t-54-94l-16 6q25 78 70 111t97 34q57 0 91-39t35-111q0-77-40-147T326 29 183-14q-75 0-111 45T36 165q0 142 80 263t196 198 212 96l6-20z"/><glyph unicode="7" glyph-name="seven" horiz-adv-x="487" d="M541 514q-23-32-94-113-66-76-110-133t-85-131-62-155q-4-14-12-53l-5-26q-6-22-22-36t-40-15q-31 0-31 34 0 6 2 22 11 64 58 141t106 149 143 166q63 70 90 104-63-42-146-42-28 0-50 4t-50 12q-45 13-74 13-39 0-62-17t-24-50q0-42 34-70t105-45l-6-15Q49 288 49 399q0 30 15 58t47 45 79 18q30 0 54-6t64-19q35-13 59-19t54-6q31 0 53 9t41 35h26z"/><glyph unicode="8" glyph-name="eight" horiz-adv-x="544" d="M537 502L339 396q40-38 63-64t39-62 17-77q0-62-36-109t-98-72-137-26q-81 0-129 32t-48 97q0 82 70 147t169 108q-45 44-68 81t-24 87q0 54 34 96t90 65 115 23q63 0 102-26t39-80q0-114-198-220zm-155-59l37 57 37 119q0 85-78 85-37 0-69-18t-50-52-19-74q0-42 22-77t66-76q54 36 91 93zm-13-232l-14 32-36 56-58 60q-72-40-117-109T98 106q0-48 22-75t76-27q45 0 85 20t64 58 24 90q0 39-14 71z"/><glyph unicode="9" glyph-name="nine" horiz-adv-x="513" d="M394 528l36-45 36-134q0-137-78-254T196-96t-208-92l-6 20q94 22 185 101t149 196 59 248q0 73-18 102t-54 29q-53 0-94-49t-63-120-23-133q0-101 65-101 33 0 64 28t54 94l16-6q-25-78-70-111t-97-34q-57 0-91 39T29 226q0 77 40 147t107 112 143 43q75 0 111-45z"/><glyph unicode=":" glyph-name="colon" horiz-adv-x="278" d="M116 481l22 23 52 24q23 0 37-15t14-37q0-30-23-53t-52-23q-22 0-36 14t-14 37q0 30 22 53zM16 67l22 23 52 24q23 0 37-15t14-37q0-30-23-53T66-14Q44-14 30 0T16 37q0 30 22 53z"/><glyph unicode=";" glyph-name="semicolon" horiz-adv-x="287" d="M117 481l22 23 52 24q23 0 37-15t14-37q0-30-23-53t-52-23q-22 0-36 14t-14 37q0 30 22 53zM149 2l-39-51L2-134l-5 14q47 29 75 63t31 68Q74-14 51-14q-18 0-28 9T13 21q0 21 13 43t35 36 44 14q22 0 33-17t11-42q0-53-39-104z"/><glyph unicode="&lt;" glyph-name="less" horiz-adv-x="602" d="M613 553L126 351l331-174-16-32L51 355l552 227 10-29z"/><glyph unicode="=" glyph-name="equal" horiz-adv-x="663" d="M119 440h501l-9-30H110l9 30zM79 300h501l-9-30H70l9 30z"/><glyph unicode="&gt;" glyph-name="greater" horiz-adv-x="602" d="M52 184l460 192-370 198 16 29 429-231L62 155l-10 29z"/><glyph unicode="?" glyph-name="question" horiz-adv-x="438" d="M278 765l-31-13-40-36q9-2 17-13t8-27q0-21-15-35t-38-14q-20 0-30 11t-10 31q0 32 27 58t71 40 90 15q67 0 107-31t41-87q0-48-36-97T310 446q-6-5-53-40-62-45-85-70t-23-62q0-30 17-49t54-20q30 0 58 12t38 32q-10 1-18 11t-8 24q0 16 13 28t32 13q15 0 24-8t10-27q0-30-26-53t-65-36-77-13q-52 0-83 25t-32 72q0 36 19 67t50 58 86 67l31 23q74 56 102 91t28 80q0 43-23 68t-68 26q-33 0-64-13zM107 67l22 23 52 24q23 0 37-15t14-37q0-30-23-53t-52-23q-22 0-36 14t-14 37q0 30 22 53z"/><glyph unicode="@" glyph-name="at" horiz-adv-x="848" d="M462 26v65q0 21 9 55-30-62-65-91t-83-29q-54 0-78 33t-25 88q0 74 39 152t100 128 121 51q60 0 66-64l14 50q57 0 90 14L544 111q-6-21-6-34 0-14 7-20t22-6q38 0 95 42t99 121 43 180q0 131-81 193t-210 63q-120 0-227-69T114 395 49 145Q49-2 130-72t219-71q116 0 206 54l7-13q-39-27-94-43t-120-16q-146 0-232 75T29 143q0 134 65 255t176 195 242 75q140 0 226-68t86-207q0-106-46-190T663 73 534 26q-72 0-72 65zm-68 30l35 51 75 157 34 121q-1 37-14 53t-40 17q-47 0-88-45t-66-116-25-141q0-97 52-97 37 0 72 51z"/><glyph unicode="A" glyph-name="A" horiz-adv-x="629" d="M507 51l14-15 32-16-4-20q-40 3-109 3-81 0-120-3l4 20q34 2 52 8t27 24 7 52l-9 164H155L80 162Q33 96 33 63q0-41 74-43l-5-20Q47 3-12 3q-43 0-75-3l5 20q46 10 100 87l431 606h15l40-629q3-33 17-48zM400 288l-17 303-214-303h231z"/><glyph unicode="B" glyph-name="B" horiz-adv-x="632" d="M482 360l38-43 39-106q0-68-43-115T405 24 261 0l-73 1q-60 2-99 2Q9 3-33 0l4 20q36 2 54 8t28 23 21 55l132 496q8 30 8 48 0 19-14 28t-53 10l5 20q40-3 119-3 45 0 68 1l73 1q93 0 140-34t48-94q0-72-59-125t-146-80q87-14 125-57zm-244 16h66q59 0 103 27t69 72 25 97q0 59-26 87t-82 29q-44 0-62-14t-29-57l-64-241zM345 23l57 51 57 152q0 133-143 133h-82l-67-253q-9-36-9-49 0-18 13-26t47-8q127 0 184 51z"/><glyph unicode="C" glyph-name="C" horiz-adv-x="670" d="M679 622l-31-144h-22q6 39 6 69 0 48-16 79-18 37-53 57t-78 21q-83 0-160-78T199 430t-48-230q0-96 38-146T294 4q44 0 93 20t85 58q26 26 45 60t45 98h22Q537 67 525 0h-22q3 21 3 34 0 26-12 26-7 0-21-9-52-34-91-49t-98-16q-111 0-172 60T51 221q0 115 57 232t158 193 221 76q58 0 88-16t61-49q7-9 15-9 9 0 18 14t22 46h21q-33-86-64-230z"/><glyph unicode="D" glyph-name="D" horiz-adv-x="725" d="M704 362l-62-112L472 69 230 0l-58 1q-56 2-82 2Q9 3-30 0l3 20q34 2 51 8t28 23 21 55l131 496q9 38 9 49 0 20-14 28t-53 9l3 20q34-3 97-3l85 1q68 2 91 2 141 0 211-56t71-165q0-125-62-237zM342 18l88 67 133 181 45 246q0 91-51 134t-163 44q-31 0-48-7t-29-25-20-54L166 104q-9-36-9-49 0-19 13-28t48-9q124 0 212 67z"/><glyph unicode="E" glyph-name="E" horiz-adv-x="610" d="M583 705l59 3q-26-72-38-118-11-36-14-62h-23q9 58 9 80 0 43-22 60t-79 17h-73q-36 0-53-5t-29-23-21-55l-63-236h66q35 0 58 16t36 39 26 56q3 10 8 21h23q-21-66-35-119l-6-23q-14-53-32-142h-23l3 20q1 7 3 22t2 26q0 30-15 47t-54 17h-66l-64-240q-9-31-9-49 0-21 15-27t53-7h73q62 0 99 16t61 53 51 108h23q-11-29-22-72-16-56-27-128-68 3-229 3Q62 3-35 0l5 20q36 2 53 8t29 23 21 55l133 496q9 32 9 49 0 21-14 28t-53 9l5 20q98-3 290-3 140 0 199 3z"/><glyph unicode="F" glyph-name="F" horiz-adv-x="566" d="M583 705l59 3q-25-71-41-128-10-37-19-82h-23q11 64 11 100 0 48-25 67t-90 20h-53q-36 0-53-5t-29-23-21-55l-66-246h73q51 0 76 30t36 62 16 40h23q-21-66-35-119l-6-23q-16-66-32-142h-23l3 22q5 27 5 47 0 30-15 46t-53 17h-73l-62-230q-8-30-8-44 0-24 18-32t68-10l-5-20Q187 3 92 3 7 3-35 0l5 20q36 2 53 8t29 23 21 55l133 496q9 32 9 49 0 21-14 28t-53 9l5 20q98-3 290-3 140 0 199 3z"/><glyph unicode="G" glyph-name="G" horiz-adv-x="705" d="M349 6l29 9 52 22q20 12 30 27t16 36l23 88q9 33 9 52 0 25-18 33t-66 11l5 20q53-3 140-3 69 0 105 3l-5-20q-24-2-35-8t-20-22-19-56L542 0h-20q3 12 3 26 0 31-15 31-6 0-13-3t-25-14q-42-26-83-40t-87-14q-122 0-187 59T50 215q0 116 56 234t157 195 225 78q60 0 95-16t69-49q9-9 17-9 10 0 19 14t21 46h22q-33-86-64-230h-22q5 43 5 75 0 46-14 73-21 37-62 57t-92 21q-103 0-180-87T184 407t-41-225q0-90 42-133T316 6q33 0 62 9z"/><glyph unicode="H" glyph-name="H" horiz-adv-x="755" d="M777 705l43 3-5-20q-37-2-54-8t-28-23-21-55L580 106q-9-38-9-49 0-21 14-28t54-9l-4-20q-42 3-128 3-80 0-127-3l4 20q36 2 54 8t28 23 21 55l64 240H230l-64-240q-9-38-9-49 0-21 14-28t54-9l-4-20Q175 3 94 3 10 3-33 0l5 20q35 2 52 8t28 23 21 55l132 496q8 34 8 48 0 22-14 29t-53 9l5 20q41-3 127-3 80 0 128 3l-5-20q-37-2-54-8t-28-23-21-55l-63-236h321l63 236q9 32 9 48 0 22-15 29t-53 9l5 20q45-3 126-3 86 0 129 3z"/><glyph unicode="I" glyph-name="I" horiz-adv-x="341" d="M157 68V57q0-21 14-28t54-9l-4-20Q175 3 94 3 10 3-33 0l5 20q35 2 52 8t28 23 21 55l132 496q8 34 8 48 0 22-14 29t-53 9l5 20q41-3 127-3 80 0 128 3l-5-20q-37-2-54-8t-28-23-21-55L166 106q-9-38-9-49z"/><glyph unicode="J" glyph-name="J" horiz-adv-x="636" d="M743 724v-6q0-24-73-52-140-93-208-300h99l-3-20H456q-8-26-11-39L383 65q-29-112-88-182t-148-71q-47 0-74 14t-28 43q0 22 16 39t39 18q18 0 30-12t12-30q0-16-11-29t-29-22q15-5 35-5 45 0 74 34t47 85 40 141q4 19 14 57l30 117q13 48 28 84H237l3 20h138q42 91 107 157t168 140q-116-60-198-60-32 0-58 7t-64 21q-39 14-65 21t-59 7q-32 0-48-16t-17-45q0-64 74-78l-3-20q-47 8-78 37t-32 86q0 51 31 83t85 33q37 0 66-14t67-40q38-27 66-40t64-13q46 0 82 10t95 35q38 58 63 58 8 0 13-5 6-6 6-12z"/><glyph unicode="K" glyph-name="K" horiz-adv-x="675" d="M678 722l14-15 15-39q0-22-14-45t-44-24q-20 0-29 11t-10 29q0 14 9 31t23 31h-3q-20-1-36-14-17-15-28-40t-30-76q-21-59-40-97t-52-68-83-37q37-8 59-21t34-47 10-96l-4-113q-1-26 4-38t26-13q25 0 42 18t32 60l17 51h20l-26-77q-19-55-49-81t-73-26q-92 0-84 116l7 113q1 13 1 36 0 46-9 69t-28 38q-37-9-57-9-31 0-31 20t30 20q22 0 61-10 51 6 83 34t50 66 39 96q18 52 31 79t33 45q29 23 60 23 30 0 44-15zM157 68V57q0-21 14-28t54-9l-4-20Q175 3 94 3 10 3-33 0l5 20q35 2 52 8t28 23 21 55l132 496q8 34 8 48 0 22-14 29t-53 9l5 20q41-3 127-3 80 0 128 3l-5-20q-37-2-54-8t-28-23-21-55L166 106q-9-38-9-49z"/><glyph unicode="L" glyph-name="L" horiz-adv-x="586" d="M528 191l-18-63Q494 72 483 0q-68 3-229 3Q62 3-35 0l5 20q36 2 53 8t29 23 21 55l133 496q9 32 9 49 0 21-14 28t-53 9l5 20q42-3 128-3 81 0 127 3l-5-20q-37-2-54-8t-29-23-21-55L166 106q-9-31-9-49 0-21 15-27t53-7h73q62 0 99 17t63 57 52 113h23q-7-19-25-82z"/><glyph unicode="M" glyph-name="M" horiz-adv-x="868" d="M808 705q77 0 125 3l-5-20q-37-2-54-8t-28-23-21-55L693 106q-8-34-8-48 0-22 14-29t53-9l-4-20q-46 3-124 3-88 0-130-3l4 20q37 2 54 8t28 23 21 55l145 539L331-5h-22l-68 658L99 116q-8-34-8-50 0-25 16-34t59-12l-5-20Q127 3 60 3 1 3-34 0l5 20q35 2 54 10t30 28 21 58l130 486q8 34 8 48 0 22-14 29t-53 9l5 20q32-3 89-3 53 0 88 3l55-593 376 590h48z"/><glyph unicode="N" glyph-name="N" horiz-adv-x="770" d="M844 754l14-14 14-37q0-27-16-49t-43-23q-20 0-29 11t-9 28q0 16 9 33t23 30h-3q-49-1-82-51-44-66-92-232T521-5h-22L271 639q-49-251-92-424T95-11Q73-40 49-57t-61-17q-60 0-60 52 0 27 16 49t43 22q20 0 29-11t9-28q0-16-9-33T-7-53h3q51 1 83 52 37 59 77 211t87 392q6 29 6 45 0 24-16 31t-61 10l5 20q32-3 89-3 46 0 81 3l189-553q43 192 84 332t84 203q44 64 108 64 32 0 46-14z"/><glyph unicode="O" glyph-name="O" horiz-adv-x="729" d="M54 339l53 116 148 191 216 76q112 0 174-63t62-178q0-113-53-228T504 62 289-14q-111 0-173 63T54 226q0 113 53 229zm333 365l-70-72-114-186-43-233q0-97 38-153T298 4q75 0 145 72t114 186 43 233q0 97-38 153t-100 56q-75 0-145-72z"/><glyph unicode="P" glyph-name="P" horiz-adv-x="589" d="M519 707l50-40 51-111q0-78-47-140t-134-97-196-35h-30l-47-178q-2-7-6-23t-4-27q0-19 15-27t54-9l-4-20Q175 3 97 3 9 3-33 0l4 20q36 2 54 8t28 23 21 55l132 496q9 36 9 48 0 20-15 28t-53 10l5 20q40-3 123-3 48 0 72 1l74 1q98 0 148-40zM393 304l63 73 63 195q0 59-30 87t-97 29q-30 0-47-7t-27-26-20-53l-79-298h34q140 0 203 73z"/><glyph unicode="Q" glyph-name="Q" horiz-adv-x="781" d="M669 50l14-15 14-42q0-44-39-86t-98-68-119-27q-70 0-124 35T201-52Q117-82 59-82q-49 0-76 19T-45-8q0 39 34 64t88 25q51 0 90-21t97-68q99 51 187 135t142 184 55 198q0 89-44 142t-127 53q-74 0-132-43t-90-111-32-141q0-72 31-107t83-36q44 0 80 24t56 61 21 73q0 27-7 40-10-21-31-33t-43-12q-22 0-34 13t-13 34q0 26 19 43t50 18q36 0 57-27t22-71q0-49-27-92t-77-68-111-26q-84 0-131 48t-47 127q0 85 53 155t140 109 180 40q120 0 189-55t69-152q0-101-69-204T504 121 279-20q62-48 116-74t129-26q50 0 85 15t59 53q-15-6-31-6-23 0-36 13t-13 35q0 24 17 42t42 18q22 0 36-15zM120-65l70 25q-49 52-79 75T47 59Q18 59-4 41T-26-6q0-59 96-59 50 0 120 25z"/><glyph unicode="R" glyph-name="R" horiz-adv-x="664" d="M592 121h23l-4-13q-18-63-45-92t-74-30q-47 0-70 28t-20 68l8 112q1 12 1 32 0 42-15 65t-54 33-115 12l-61-230q-9-30-9-49 0-20 14-28t54-9l-4-20Q175 3 97 3 9 3-33 0l4 20q36 2 54 8t28 23 21 55l132 496q9 34 9 47 0 21-15 29t-53 10l5 20q40-3 123-3 48 0 72 1l74 1q98 0 148-37t51-104q0-82-71-142t-190-80q13-1 35-5 59-11 85-35t26-77q0-13-1-20l-8-102q-1-7-1-21 0-61 32-61 17 0 31 20t29 64l5 14zM233 356h30q135 0 195 59t61 157q0 59-30 87t-97 29q-30 0-47-7t-27-26-20-53l-65-246z"/><glyph unicode="S" glyph-name="S" horiz-adv-x="554" d="M540 624l-23-113h-20q6 29 6 57 0 59-35 97t-107 38q-63 0-101-32t-39-95q0-49 30-90t92-97q43-39 69-68t44-64 18-75q0-65-37-109T341 7 221-14q-53 0-84 13T79 32Q60 47 43 47q-12 0-20-12T2-7h-20q16 38 31 91t37 149h20q-9-47-9-74 0-73 40-113T224 6q68 0 107 31t40 94q0 38-15 70t-36 56-60 62q-40 38-63 65t-40 63-17 80q0 62 31 106t82 66 107 23q41 0 71-10t59-32q24-18 33-18 8 0 15 12t18 41h20q-36-91-59-204z"/><glyph unicode="T" glyph-name="T" horiz-adv-x="659" d="M790 817l11-13 12-35q0-22-13-40t-34-32q-53-33-158-33-44 0-102 7L358 116q-9-31-9-51 0-25 18-34t66-11l-4-20q-52 3-149 3-98 0-146-3l4 20q42 2 65 10t37 28 25 58l151 567q-81 11-129 11-87 0-112-17 8-11 13-27t5-31q0-23-13-40t-37-18q-21 0-32 13t-12 37q0 52 53 78 47 23 134 23 40 0 76-3t91-11q52-7 87-10t75-4q45 0 75 5t54 17q-25 25-25 56 0 22 12 38t37 17q22 0 33-13z"/><glyph unicode="U" glyph-name="U" horiz-adv-x="682" d="M638 617v19q0 28-17 39t-57 13l5 20q35-3 101-3 59 0 94 3l-5-20q-35-2-54-10t-31-28-21-58l-78-301q-36-138-98-212-37-43-90-68T272-14q-107 0-154 54-18 21-26 45t-9 57q0 54 25 146l83 314q8 34 8 48 0 22-14 29t-53 9l6 20q40-3 129-3 77 0 125 3l-6-20q-37-2-54-8t-28-23-21-55l-88-331q-22-85-22-135 0-55 27-85t91-30q105 0 165 68t93 191l82 312q7 25 7 44z"/><glyph unicode="V" glyph-name="V" horiz-adv-x="632" d="M710 705l32 3-5-20q-53-11-101-87L242-5h-15l-79 629q-4 33-19 48t-33 16l5 20q39-3 108-3 77 0 120 3l-5-20q-32-2-48-6t-25-16-9-37q0-7 2-25l57-483 277 425q43 67 43 99 0 22-18 32t-56 11l5 20q55-3 114-3 44 0 76 3z"/><glyph unicode="W" glyph-name="W" horiz-adv-x="902" d="M962 705l32 3-5-20q-59-13-95-87L595-5h-16l-72 456L236-5h-16l-79 629q-8 62-55 64l4 20q40-3 99-3 72 0 108 3l-4-20q-31-2-44-14t-14-44q0-6 2-26l56-477 209 355-22 142q-10 62-45 64l4 20q36-3 89-3 86 0 128 3l-4-20q-45-2-62-12t-17-40q0-14 3-32l72-455 195 397q33 68 33 97 0 25-18 34t-59 11l5 20q56-3 114-3 44 0 76 3z"/><glyph unicode="X" glyph-name="X" horiz-adv-x="699" d="M721 722l14-14 14-37q0-25-15-48t-44-24q-19 0-28 11t-10 27q0 15 9 33t23 31h-3q-35 0-64-21-45-33-100-110T410 382l26-227q6-53 24-83t55-31q29 0 47 18t33 60l17 51h20l-26-77q-19-55-49-81t-73-26q-65 0-94 43t-37 113l-18 157q-39-83-100-161T118 21Q72-14 26-14-5-14-19 0t-14 37q0 25 15 48t44 24q20 0 29-11t9-27q0-15-9-33T32 7h4q34 1 63 21 52 34 114 112t118 192l-26 221q-6 53-24 83t-55 31q-29 0-47-18t-33-60l-17-51h-20l26 77q19 55 49 81t73 26q65 0 94-43t37-113l18-155q39 85 92 161t100 115q46 35 92 35 31 0 45-14z"/><glyph unicode="Y" glyph-name="Y" horiz-adv-x="670" d="M729 722l13-15 14-38q0-25-15-47t-44-23q-20 0-29 11t-9 29q0 16 9 32t23 30h-3q-27-1-55-22-52-38-112-122T404 338l-58-232q-8-34-8-48 0-22 14-29t53-9l-5-20q-45 3-124 3-87 0-131-3l5 20q36 2 54 8t29 23 20 55l59 233q-16 142-43 235t-74 93q-17 0-28-11t-20-36l-28-82H97l33 97q16 47 36 67t62 20q53 0 85-43t51-120 31-199q37 93 85 168t102 129q65 65 118 65 29 0 42-15z"/><glyph unicode="Z" glyph-name="Z" horiz-adv-x="652" d="M719 709v-9q0-14-18-30t-57-32L367 366h152l-8-20H347L64 68q92 54 173 54 28 0 51-7t55-21q34-14 56-21t52-7q33 0 50 17t18 49q0 59-72 73l4 20q45-8 75-35t31-81q0-54-33-88t-88-35q-33 0-58 13t-58 41q-32 26-57 39t-56 14q-38 0-69-10T59 48Q41 22 21 6t-36-16q-9 0-14 5-6 4-6 13 0 14 18 30t57 32l281 276H159l7 20h175l279 274q-92-54-173-54-28 0-51 7t-55 21q-34 14-56 21t-52 7q-33 0-50-17t-18-49q0-59 72-73l-4-20q-45 8-75 35t-31 81q0 54 33 88t88 35q33 0 58-13t58-41q32-26 57-39t56-14q38 0 69 10t79 35q18 26 38 42t36 16q9 0 14-5 6-4 6-13z"/><glyph unicode="[" glyph-name="bracketleft" horiz-adv-x="300" d="M213 772h170l-4-19h-81L69-162h81l-4-19H-24l237 953z"/><glyph unicode="\" glyph-name="backslash" horiz-adv-x="492" d="M391-14h-33L132 722h31L391-14z"/><glyph unicode="]" glyph-name="bracketright" horiz-adv-x="300" d="M87-181H-83l4 19H2l229 915h-81l4 19h170L87-181z"/><glyph unicode="^" glyph-name="asciicircum" horiz-adv-x="535" d="M251 409l-54-32-108-55-4 14q72 31 135 82t103 110h18q8-58 44-109t92-83l-12-14q-54 22-102 54t-74 66q-38-33-92-65z"/><glyph unicode="_" glyph-name="underscore" horiz-adv-x="744" d="M561-120l-11-40H-50l10 40h601z"/><glyph unicode="`" glyph-name="grave" horiz-adv-x="320" d="M307 650l-55 67q-5 6-22 27t-29 40q-10 17-10 32 0 20 16 28 7 3 16 3 25 0 43-31 10-17 33-75 26-69 58-136l-13-6q-37 51-92 118z"/><glyph unicode="a" glyph-name="a" horiz-adv-x="523" d="M455 163h19l-25-73q-20-55-51-79t-64-25q-19 0-33 7t-22 19q-9 15-9 35 0 21 7 47t9 33l18 72Q256 87 207 37T103-14q-46 0-70 33T9 107q0 81 43 181t112 170 140 70q27 0 44-20t20-56l16 62q55 2 92 14L351 86q-1-4-4-15t-3-22q0-25 22-25 44 0 77 102l12 37zM160 18l39 43 76 114 62 153 18 71q1 8 1 22 0 41-14 64t-41 24q-43 0-91-66t-80-164T97 95q0-41 9-59t26-18q28 0 67 43z"/><glyph unicode="b" glyph-name="b" horiz-adv-x="504" d="M411 528l27-35 28-106q0-81-36-175T327 52 173-14q-30 0-52 17T89 53L4-16l-15 7Q1 16 8 49l175 618q4 13 4 27 0 20-15 29t-52 10l5 21q53 1 95 11t81 30L172 323q47 108 92 156t98 49q49 0 76-35zM225 9l48 66 77 162 30 172q0 43-12 65t-35 22q-40 0-96-88T135 191L101 64q12-30 29-42t42-13q53 0 101 66z"/><glyph unicode="c" glyph-name="c" horiz-adv-x="432" d="M273 508l-49-54-81-143-32-187q0-49 18-72t52-24q82 0 150 100l20-8q-32-55-86-94T150-14q-61 0-96 37T18 133q0 81 38 174t107 157 157 64q46 0 77-23t31-62q0-31-20-55t-51-25q-20 0-30 11t-11 28q0 28 22 48t53 27q-21 31-68 31-50 0-99-54z"/><glyph unicode="d" glyph-name="d" horiz-adv-x="542" d="M472 162h19l-23-73q-17-55-49-79t-67-24q-31 0-47 16t-16 46q0 28 13 78l14 51Q269 76 220 31T116-14q-49 0-76 33t-28 99q0 83 43 180t118 163 162 67q20 0 37-13t24-35l50 187q4 13 4 27 0 20-15 29t-53 10l6 21q53 1 95 11t82 30L369 85q-6-24-6-34 0-28 24-28 20 0 37 23t36 79l12 37zM175 18l39 42 77 112 63 151 35 131q-6 26-20 38t-33 13q-61 0-115-64t-87-160-33-176q0-87 44-87 30 0 69 42z"/><glyph unicode="e" glyph-name="e" horiz-adv-x="429" d="M416 381l-91-61-208-99q-11-50-11-97 0-96 69-96 86 0 154 100l16-8q-32-55-86-94T144-14q-62 0-97 36T12 127q0 76 44 171t121 163 165 67q32 0 53-17t21-49q0-81-91-142zM288 509l-39-37-74-100-53-132q95 33 136 64 37 29 57 70t21 90q0 27-4 36t-12 9q-32 0-71-37z"/><glyph unicode="f" glyph-name="f" horiz-adv-x="321" d="M434 782l25-20 26-51q0-26-19-47t-48-22q-19 0-30 9t-10 25q0 24 15 41t42 26q0 9-13 16t-33 8q-30 0-58-26-21-19-35-60t-35-123l-11-43v-1h118l-6-20H244L65-174q-54-2-90-14l182 682H67l6 20h90v1q22 82 45 133t57 84q23 23 56 36t69 14q44 0 69-20z"/><glyph unicode="g" glyph-name="g" horiz-adv-x="449" d="M470 569l15-15 16-45q0-26-13-40t-31-14q-19 0-33 13t-15 38q0 18 9 42-39-17-57-42 42-29 42-90 0-44-21-86t-61-72-92-41l-33-18q-47-25-68-40t-22-29q0-11 14-19t46-16l73-19q57-15 85-33t28-54q0-38-31-81t-97-73-162-30q-77 0-117 20t-41 55q0 34 37 68T46 3l7-15q-65-34-65-91 0-38 26-56t71-19q44 0 91 18t77 47 31 62q0 14-8 19t-33 11L90 18Q36 32 36 78q0 31 32 61t123 74h-7q-58 0-94 27t-36 82q0 42 22 90t71 82 124 34q43 0 72-13 19 24 46 39t54 15q27 0 42-15zM240 231l27 35 37 83 10 87q0 37-10 55t-37 19q-48 0-76-42t-39-94-11-83q0-60 53-60 46 0 73 35z"/><glyph unicode="h" glyph-name="h" horiz-adv-x="536" d="M486 162l-25-73Q425-14 340-14q-70 0-70 62 0 30 16 78l95 286q10 28 10 50 0 34-32 34-37 0-79-46t-86-131-80-195L78 0H-9l198 667q5 17 5 27 0 20-16 29t-53 10l6 21q104 1 180 41L166 299q54 122 108 175t118 54q81 0 81-76 0-32-15-75L361 85q-8-24-8-38 0-24 24-24 20 0 38 22t39 80l13 37h19z"/><glyph unicode="i" glyph-name="i" horiz-adv-x="302" d="M188 713l22 23 52 24q23 0 37-15t14-37q0-30-23-53t-52-23q-22 0-36 14t-14 37q0 30 22 53zm-22-260v13q0 25-22 25-23 0-41-24t-38-78l-14-37H32l26 73q20 57 53 80t71 23q66 0 66-63 0-33-16-77L125 85q-8-24-8-37 0-25 24-25 21 0 39 23t39 79l14 37h19l-26-73q-20-55-52-79t-71-24q-70 0-70 61 0 29 18 79l107 303q8 24 8 37z"/><glyph unicode="j" glyph-name="j" horiz-adv-x="276" d="M-133-173q62 3 106 53T39 19l115 410q7 24 7 39 0 23-22 23-20 0-38-23t-38-79l-13-37H31l24 73q34 103 123 103 67 0 67-61 0-26-15-79l-77-273Q112-51 20-127q-34-28-74-44t-83-17l4 15zm320 889l21 24 53 25q23 0 37-14t14-37q0-28-22-52t-53-25q-22 0-36 14t-14 37q0 28 21 52z"/><glyph unicode="k" glyph-name="k" horiz-adv-x="515" d="M462 528l14-15 15-39q0-22-14-45t-44-24q-20 0-29 11t-10 29q0 14 9 31t23 31h-2q-11 0-19-3t-18-11q-14-11-24-28t-24-48q-25-53-50-84t-74-42q63-3 103-26t41-74q0-12-3-27L336 64q-2-8-2-20 0-11 5-16t17-5q20 0 37 23t37 79l12 37h19l-24-73Q404-14 318-14q-29 0-47 16t-18 49q0 15 4 30l18 86q5 23 5 37 0 38-27 57t-91 24L78 0H-9l198 667q5 17 5 27 0 20-16 29t-53 10l6 21q104 1 180 41L165 297q47 4 76 22t44 42 34 63q13 30 24 49t29 32q31 23 60 23 30 0 44-15z"/><glyph unicode="l" glyph-name="l" horiz-adv-x="277" d="M96 64V50q0-27 23-27 20 0 37 23t38 79l13 37h19l-25-73Q166-14 81-14q-69 0-69 65 0 25 14 75l163 541q5 18 5 28 0 20-15 29t-53 9l7 21q53 1 95 11t83 30L102 85q-6-21-6-35z"/><glyph unicode="m" glyph-name="m" horiz-adv-x="809" d="M759 162l-25-73Q698-14 613-14q-45 0-62 27-9 15-9 35 0 27 17 78l95 286q10 30 10 53 0 31-22 31-57 0-128-130T375 20l1 6-7-26h-90l125 412q10 30 10 51 0 33-28 33-37 0-83-58t-90-160-78-223L121 0H34l120 429q7 28 7 37 0 25-21 25-22 0-40-23t-38-79l-13-37H30l25 73q36 103 121 103 58 0 58-60 0-26-15-80l-32-127q60 146 113 206t119 61q66 0 66-70 0-31-14-81l-36-134q42 105 79 166t75 90 86 29q70 0 70-75 0-32-14-76L634 85q-8-26-8-38 0-24 24-24 20 0 38 22t39 80l13 37h19z"/><glyph unicode="n" glyph-name="n" horiz-adv-x="580" d="M530 162l-25-73Q469-14 384-14q-45 0-63 29-8 12-8 33 0 27 17 78l95 286q10 33 10 49 0 35-32 35-38 0-86-55t-96-153-81-215L122 0H35l120 429q7 26 7 37 0 25-22 25t-39-22-38-80l-13-37H31l25 73q36 103 119 103 32 0 45-15t14-44q0-27-14-81l-35-137q64 151 122 214t129 63q81 0 81-75 0-33-15-76L405 85q-8-24-8-38 0-24 24-24 20 0 38 22t39 80l13 37h19z"/><glyph unicode="o" glyph-name="o" horiz-adv-x="488" d="M21 222l35 90 101 153 153 63q64 0 100-39t37-118q0-79-35-169T311 49 158-14Q94-14 58 25T21 143q0 79 35 169zm232 286l-45-65-73-162-28-188q0-45 14-66t43-21q51 0 96 65t73 162 28 188q0 45-14 66t-43 21q-51 0-96-65z"/><glyph unicode="p" glyph-name="p" horiz-adv-x="551" d="M458 528l27-35 28-106q0-81-36-175T374 52 220-14q-27 0-49 15t-32 43L101-88q-4-12-4-24 0-26 22-37t63-11l-6-21-21 1q-87 3-113 3-27 0-111-4l6 21q36 0 52 13t26 49l187 667q-30-67-70-118T33 344l-11 13q47 46 78 82t63 87 63 127l4 14q54 2 91 14L217 317q47 111 93 161t99 50q49 0 76-35zM272 9l48 66 77 162 30 172q0 43-12 65t-35 22q-28 0-65-45t-76-123-67-168l-26-91q12-32 30-46t43-14q53 0 101 66z"/><glyph unicode="q" glyph-name="q" horiz-adv-x="507" d="M326-88q-4-13-4-26 0-46 65-46l-6-21-21 1q-87 3-113 3-27 0-111-4l6 21q46 0 67 13t31 49l69 264q-45-96-90-138t-97-42q-49 0-76 35T18 127q0 81 36 175t103 160 154 66q30 0 52-17t32-50l85 69 16-7q-13-26-21-58L326-88zM179 18l36 37 70 101 57 135 41 159q-12 30-29 42t-42 13q-53 0-101-66t-77-162-30-172q0-43 12-65t35-22q28 0 64 37z"/><glyph unicode="r" glyph-name="r" horiz-adv-x="426" d="M422 528l16-16 16-41q0-30-21-51t-49-21q-18 0-29 9t-11 27q0 23 12 39t33 25q-4 4-11 4-54 0-117-116T141 79L121 0H34l120 429q7 22 7 39 0 23-21 23-22 0-40-23t-38-79l-13-37H30l25 73q36 103 121 103 57 0 57-58 0-28-14-82l-32-126q54 145 101 205t107 61q27 0 43-16z"/><glyph unicode="s" glyph-name="s" horiz-adv-x="381" d="M69 10l9-2 27-2q45 0 73 27t28 76q0 32-12 62t-40 70q-34 46-49 75t-16 70q0 41 21 73t56 51 78 18q52 0 87-19t35-68q0-18-11-35t-35-17q-17 0-28 12t-12 30q0 32 28 67-19 12-50 12-38 0-62-25t-25-70q0-26 9-44t33-55l18-26q30-46 44-79t15-68q0-45-23-81T204 6t-86-20q-57 0-96 24t-39 75q0 17 9 31t30 14q22 0 33-18t11-45q0-17-7-52 10-5 19-7z"/><glyph unicode="t" glyph-name="t" horiz-adv-x="336" d="M121 85q-3-12-3-22 0-20 12-30t31-10q25 0 46 21t43 79l14 39h19l-21-63q-21-62-54-87t-83-26Q80-14 58 8T36 69q0 26 9 57l106 368H61l5 20h90l44 152q54 2 90 14l-47-166h132l-3-20H237L121 85z"/><glyph unicode="u" glyph-name="u" horiz-adv-x="567" d="M499 162h19l-25-73Q457-14 372-14q-16 0-30 7t-21 20q-6 14-6 31 0 26 14 82l31 125Q302 108 247 47T127-14q-84 0-84 77 0 32 14 74l97 292q8 24 8 37 0 25-24 25-20 0-38-22t-39-80l-13-37H29l25 73q36 103 121 103 70 0 70-62 0-30-16-78l-95-286q-10-30-10-50 0-34 32-34 39 0 86 57t93 160 80 230l12 49q57 2 91 14L394 85q-7-26-7-39 0-23 21-23 22 0 40 23t38 79l13 37z"/><glyph unicode="v" glyph-name="v" horiz-adv-x="533" d="M443 394l-21 26-21 60q0 25 13 37t31 12q28 0 42-27t14-74q0-26-2-40-12-103-52-195T339 44 183-14q-63 0-90 36t-24 88q6 82 68 183t164 197q-25-10-57-30-25-16-43-24t-32-9q-11 0-21 6t-13 7q-18 12-29 12-16 0-26-13t-23-49l-11-37H27l22 73q28 102 94 102 13 0 22-4t23-15 23-15 23-5q50 0 84 31l10 19 21-10q-81-100-126-199t-54-203q-1-9-1-24 0-84 44-84 73 0 132 61t93 146 37 153q-31 15-52 41z"/><glyph unicode="w" glyph-name="w" horiz-adv-x="685" d="M627 377v-51q0-81-26-159T519 38 381-14q-79 0-106 61-68-61-138-61-64 0-94 32t-30 82q0 85 84 184t203 189q-3-1-23-14-28-17-44-24t-30-8q-12 0-21 6t-12 7q-18 12-30 12-16 0-27-13t-22-49l-12-37H60l23 73q18 56 41 79t52 23q13 0 22-4t23-15q15-10 24-15t23-5q24 0 43 7t37 24l14 19 21-10Q261 426 186 321t-75-215q0-48 14-69t41-21q25 0 51 12t52 36q-7 28-7 59 0 56 24 111t59 90 63 35q20 0 27-21t8-49q0-54-29-109t-86-99q23-66 80-66 64 0 108 49t67 121 22 140q0 41-7 66-36 7-65 29t-30 60q0 24 12 36t30 12q28 0 46-32t28-86q8-33 8-84zm-243-40l-20-26-34-66-14-82q0-36 7-64 45 37 71 88t26 103q0 47-19 47-17 0-37-26z"/><glyph unicode="x" glyph-name="x" horiz-adv-x="526" d="M497 528l12-10 13-27q0-19-15-33t-38-15q-34 0-63 24-63-57-108-175l24-214q4-25 12-35t22-11q17 0 32 19t35 73l13 37h19l-25-73Q393-14 316-14q-72 0-83 92l-15 130q-40-89-106-160Q81 16 58 1T11-14q-22 0-33 9t-12 28q0 19 15 33t37 15q32 0 63-24 41 38 76 91t57 106l-21 192q-4 25-12 35t-22 11q-17 0-32-19t-35-73l-13-37H60l25 73q37 102 114 102 37 0 57-20t26-72l12-103q33 76 84 134 28 33 51 47t49 14q19 0 31-10z"/><glyph unicode="y" glyph-name="y" horiz-adv-x="481" d="M458 528v-81q0-95-59-220T261 3Q168-113 64-163q-53-25-87-25-21 0-35 11t-15 30q0 21 16 33t38 12q21 0 40-10t43-29q78 42 150 120l-74 448q-5 31-12 43t-20 12q-13 0-26-19t-33-73l-13-37H17l25 73q35 102 115 102 32 0 48-20t24-72l51-376q55 76 95 159t56 166q-30 16-53 39t-23 53q0 23 14 37t37 14q52 0 52-81z"/><glyph unicode="z" glyph-name="z" horiz-adv-x="445" d="M70 68l27 11 55 12q16 0 29-4t36-12q22-8 37-12t33-4q26 0 40 12t15 38q0 26-22 45t-57 27l6 15q47-11 72-35t25-62q0-44-28-74T250-6q-23 0-41 5t-41 16q-25 11-44 16t-46 6q-28 0-49-8T-12 0h-27l451 475q-45-29-72-40t-55-12q-16 0-29 4t-36 12q-22 8-37 12t-33 4q-26 0-40-12t-15-38q0-26 22-45t57-27l-6-15q-47 11-72 35t-25 62q0 44 28 74t88 31q23 0 41-5t41-16q25-11 44-16t46-6q28 0 49 8t41 29h27L25 39q45 29 72 40z"/><glyph unicode="{" glyph-name="braceleft" horiz-adv-x="306" d="M86-188l-30 28-31 80q0 24 5 52t16 71q33 133 33 184-1 30-12 43t-35 16h-5l3 18h5q32 3 53 24t41 72 43 147q24 93 52 143t70 71 105 21l-5-19q-35-1-54-14t-36-58-42-144q-30-122-82-177T57 295q96-28 96-137 0-45-17-115-29-118-29-158 0-31 13-42t44-12l-5-19q-73 0-103 28z"/><glyph unicode="|" glyph-name="bar" horiz-adv-x="318" d="M189-195h-40V858h40V-195z"/><glyph unicode="}" glyph-name="braceright" horiz-adv-x="306" d="M221 782l30-28 31-80q0-24-5-52t-16-71q-33-133-33-184 1-30 12-43t35-16h5l-3-18h-5q-32-3-53-24t-41-72-43-147Q111-46 83-96t-70-71-105-21l5 19q35 1 54 14T3-97 45 47q30 122 82 177t123 75q-96 28-96 137 0 45 17 115 29 118 29 158 0 31-13 42t-44 12l5 19q73 0 103-28z"/><glyph unicode="~" glyph-name="asciitilde" horiz-adv-x="649" d="M385 237l-26 10-63 30q-35 19-58 28t-55 10q-65 0-101-58l-14 5q23 50 66 78t99 29q35 0 61-10t63-30q35-19 58-28t55-10q65 0 101 58l14-5q-23-50-66-78t-99-29q-35 0-61 10z"/><glyph glyph-name="uni00A0" horiz-adv-x="253"/><glyph unicode="¡" glyph-name="exclamdown" horiz-adv-x="249" d="M106 481l22 23 52 24q23 0 37-15t14-37q0-30-23-53t-52-23q-22 0-36 14t-14 37q0 30 22 53zm19-233l-12-67L86 19Q84 6 75-53t-20-96q-4-19-16-29t-29-10q-23 0-34 11t-12 30q0 7 4 21 11 37 51 140 35 90 60 161t45 144l18-3q-17-68-29-135z"/><glyph unicode="¢" glyph-name="cent" horiz-adv-x="433" d="M363 528l31-23 31-62q0-31-20-55t-51-25q-20 0-30 11t-11 28q0 28 22 48t53 27q-21 31-68 31-7 0-19-2L172 28h6q82 0 150 100l20-8q-30-52-80-90T161-13l-45-168H94l45 167q-58 2-91 39T15 133q0 76 33 163t95 152 141 77l49 183h22l-48-180h10q46 0 77-23zm-87-30q-44-21-82-77t-62-134-24-163q0-74 43-91l125 465z"/><glyph unicode="£" glyph-name="sterling" horiz-adv-x="624" d="M502 659l13 16 35 22q0 10-17 17t-39 7q-60 0-97-34t-59-86-44-136l-13-48h136l-6-20H276l-21-80h135l-6-20H249q-20-62-55-109T94 76q69 32 126 32 22 0 41-5t51-17q34-12 54-17t47-6q34 0 60 20t26 54q0 56-65 69l6 17q43-7 72-33t29-69q0-33-20-64T468 6t-70-20q-31 0-55 12t-57 35q-34 24-58 35t-56 12q-41 0-87-20Q60 25 35 6t-46-20q-7 0-10 2t-3 8q0 16 27 38t72 35q21 40 37 82t34 107l10 39H59l6 20h97l21 80H86l6 20h96l6 22q36 136 109 216t193 81q51 0 77-19t27-49q0-25-18-44t-44-19q-15 0-25 9t-11 25q0 20 13 36z"/><glyph unicode="¤" glyph-name="currency" horiz-adv-x="569" d="M139 181q-42 52-42 119t43 120l-44 44 28 28 44-44q24 20 55 31t64 11q66 0 119-43l45 45 28-28-45-45q42-53 42-119 0-67-42-119l44-43-28-29-44 44q-53-42-119-42-69 0-119 41l-43-43-29 29 43 43zm-1 78l20-35 55-55 74-21q40 0 74 20t54 56 20 76q0 40-20 75t-54 57-74 21q-40 0-74-21t-55-56-20-76q0-41 20-76z"/><glyph unicode="¥" glyph-name="yen" horiz-adv-x="703" d="M737 722l13-15 14-38q0-25-15-47t-44-23q-20 0-29 11t-9 29q0 16 9 32t23 30h-3q-27-1-55-22-52-38-112-122T412 338l-10-41h141l-5-20H397l-15-60h139l-5-20H377l-23-91q-8-34-8-48 0-22 14-29t53-9l-5-20q-45 3-124 3-87 0-131-3l5 20q36 2 54 8t29 23 20 55l23 91H143l5 20h141l15 60H165l5 20h139l11 42q-16 142-43 235t-74 93q-17 0-28-11t-20-36l-28-82h-22l33 97q16 47 36 67t62 20q53 0 85-43t51-120 31-199q37 93 85 168t102 129q65 65 118 65 29 0 42-15z"/><glyph unicode="¦" glyph-name="brokenbar" horiz-adv-x="322" d="M191 384h-40v474h40V384zm-40-58h40v-521h-40v521z"/><glyph unicode="§" glyph-name="section" horiz-adv-x="508" d="M411 686l16 17 42 24q-6 20-32 28t-56 8q-58 0-100-32t-42-101q0-31 17-58t38-46 67-59q54-46 79-79t25-76q0-64-44-114t-117-87q43-48 43-102t-30-99-82-72-108-26q-53 0-96 23t-44 70q0 26 19 47t48 21q20 0 31-10t12-30q0-24-16-41t-42-25q6-19 33-27t55-9q59 0 100 32t42 103q0 30-17 57t-37 45-68 59q-54 46-79 79t-25 76q0 64 44 114t117 87q-43 48-43 102t30 99 82 72 108 26q52 0 96-23t45-67q0-28-19-49t-49-22q-20 0-31 11t-12 31q0 23 16 40zM279 414q-44 35-64 56-107-57-107-132 0-36 26-68t79-76l16-14q44-35 64-56 107 57 107 132 0 37-26 68t-79 76l-16 14z"/><glyph unicode="¨" glyph-name="dieresis" horiz-adv-x="428" d="M156 702l20 20 47 21q21 0 35-14t15-36q0-25-20-45t-47-21q-22 0-36 14t-14 37q0 24 20 44zm212 0l20 20 47 21q21 0 35-14t15-36q0-25-20-45t-47-21q-22 0-36 14t-14 37q0 24 20 44z"/><glyph unicode="©" glyph-name="copyright" horiz-adv-x="924" d="M88 492l53 91 145 145 200 54q108 0 199-53t145-145 54-200q0-108-53-199T686 40 486-14q-108 0-199 53T142 184 88 384q0 108 53 199zm40-207l48-84L306 68l180-50q97 0 179 49t131 134 48 183q0 99-48 183T666 700t-180 50q-97 0-179-49T176 567t-48-183q0-99 48-183zm425-129l38 25 64 78 19-7q-17-57-63-98t-120-41q-63 0-113 32t-80 92-29 141q0 81 29 144t83 99 122 35q65 0 113-30t49-79q0-26-15-41t-38-15q-23 0-39 14t-16 40q0 21 11 34t31 17q-10 18-35 30t-55 12q-59 0-101-58t-42-190q0-121 40-177t103-57q44 0 82 25z"/><glyph unicode="ª" glyph-name="ordfeminine" horiz-adv-x="454" d="M436 478h19l-18-49q-14-39-35-54t-55-15q-22 0-32 9t-11 32q0 20 9 53l12 43q-66-137-150-137-36 0-57 22t-21 58q0 58 38 124t96 112 111 46q14 0 25-8t13-27l7 26q40 0 70 9l-94-292q-5-17-5-25 0-16 16-16t28 14 25 50l9 25zm-220-93l30 29 58 76 48 100 20 70q-1 38-25 38-34 0-76-39t-71-101-30-126q0-47 25-47 21 0 51 29z"/><glyph unicode="«" glyph-name="guillemotleft" horiz-adv-x="517" d="M285 459l-66-88L99 244q41-34 83-114t58-144h-18Q135 157 24 243v2q77 54 144 124t132 159h18q-33-69-99-157zm168 2l-67-88-122-129q41-34 83-114t58-144h-18q-87 171-198 257v2q77 54 144 124t132 159h18q-30-67-97-155z"/><glyph unicode="¬" glyph-name="logicalnot" horiz-adv-x="661" d="M103 370h501l-59-205h-36l50 175H94l9 30z"/><glyph unicode="­" glyph-name="uni00AD" horiz-adv-x="504"/><glyph unicode="®" glyph-name="registered" horiz-adv-x="699" d="M481 782l64-37 101-102 38-140q0-76-37-140T545 262t-140-38q-76 0-140 37T164 363t-38 140q0 76 37 140t102 101 140 38q76 0 140-37zm-11-526l54 33 86 90 32 124q0 67-31 123t-86 90-120 34q-65 0-119-33t-86-90-32-124q0-67 31-123t86-90 120-34q65 0 119 33zm80 108l4 8 10-7q-6-12-16-16t-28-5q-25 0-37 9t-18 32l-17 74q-4 20-11 29t-24 12-53 5V404q0-23 4-29t19-8v-15l-51 1-52-1v15q15 2 19 8t4 29v219q0 23-4 29t-19 9v15q12-1 48-1l86 1q57 0 86-20t30-59q0-68-98-85 40-4 57-17t23-41l12-57q1-4 3-14t5-14 10-5q8 0 12 8zM374 661l-7-6-7-27V521h24q49 0 66 17t18 49q0 38-16 56t-54 18q-24 0-31-6z"/><glyph unicode="¯" glyph-name="overscore" horiz-adv-x="412" d="M469 687H157l6 25h312l-6-25z"/><glyph unicode="°" glyph-name="degree" horiz-adv-x="335" d="M312 820l35-33 36-87q0-54-35-87t-87-34q-50 0-85 33t-36 88q0 54 35 87t86 33q51 0 86-33zm-13-224l29 27 30 76q0 48-30 76t-67 28q-37 0-66-28t-30-76q0-49 29-76t67-27q38 0 67 27z"/><glyph unicode="±" glyph-name="plusminus" horiz-adv-x="635" d="M0 30h501l-9-30H-9l9 30zm317 340l67 236h36l-67-236h232l-9-30H344l-67-235h-36l67 235H75l9 30h233z"/><glyph unicode="²" glyph-name="uni00B2" horiz-adv-x="341" d="M331 754l21-14 21-43q0-44-39-82t-111-88q-36-25-51-37 22 0 63-9 6-1 28-5t35-4q21 0 34 9t13 26q0 11-4 19l17 7q10-15 10-32 0-29-24-48t-66-20q-19 0-57 8-42 10-75 10-19 0-32-3t-33-11l4 18 36 23q84 53 138 101t55 98q0 43-54 43-62 0-107-52l-14 11q26 32 66 53t89 22q37 0 58-14z"/><glyph unicode="³" glyph-name="uni00B3" horiz-adv-x="326" d="M335 754l22-13 22-41q0-39-44-70t-95-44q47-2 78-19t31-55q0-47-48-83t-119-57-139-26v18q60 5 117 25t93 53 36 78q0 50-55 52-19-10-32-10-7 0-12 3t-6 10q0 19 44 17 43 16 68 40t25 54q0 18-12 27t-35 10q-60 0-116-56l-14 12q25 29 66 52t89 23q36 0 58-13z"/><glyph unicode="´" glyph-name="acute" horiz-adv-x="276" d="M177 655l53 71q38 52 58 72 19 22 41 22 14 0 22-7 8-8 8-19 0-20-23-43-22-23-68-55-7-5-42-32t-78-65l-10 9q39 47 92 118z"/><glyph unicode="¶" glyph-name="paragraph" horiz-adv-x="640" d="M188-13l-76 64-76 178q0 131 62 241t171 174 238 65q29 0 81-2l69-1q40 0 60 2l-5-19q-46-2-65-17t-30-51L478 93q-35-131-95-206t-150-75q-46 0-73 14t-29 41q0 22 18 41t41 20q15 0 24-8t9-23q0-33-35-64 15-5 35-5 50 0 79 40t52 119q-166 0-242 64zm206 259l-12-77-12-110q0-11 2-11 25 94 80 302t83 306q-3 0-22-42t-43-109-44-139q-102 0-192-6t-92-9q-1-4 85-9t191-5q-24-91-36-168z"/><glyph unicode="·" glyph-name="middot" horiz-adv-x="258" d="M55 268l22 23 52 24q23 0 37-15t14-37q0-30-23-53t-52-23q-22 0-36 14t-14 37q0 30 22 53z"/><glyph unicode="¸" glyph-name="cedilla" horiz-adv-x="290" d="M64-72q19 7 41 7 20 0 31-10t12-30q0-40-38-61t-85-22q-26 0-47 6t-33 16l7 15q29-13 60-13 23 0 47 12t25 39q0 24-28 24-16 0-31-7L71 0h27L64-72z"/><glyph unicode="¹" glyph-name="uni00B9" horiz-adv-x="253" d="M215 437h-59l81 251q-31-18-58-30t-68-24l5 19q63 19 99 41t82 59h19L215 437z"/><glyph unicode="º" glyph-name="ordmasculine" horiz-adv-x="411" d="M107 518l25 60 74 102 113 42q54 0 84-26t31-79q0-53-25-113t-74-101-113-42q-54 0-84 26t-31 78q0 53 25 113zm172 186l-31-41-50-103-19-123q0-58 48-58 35 0 66 41t50 103 19 123q0 58-48 58-35 0-66-41z"/><glyph unicode="»" glyph-name="guillemotright" horiz-adv-x="516" d="M199 355l110-85v-1q-77-54-144-124T33-14H15q33 69 99 157t120 127q-41 34-83 114T93 528h18q88-173 198-258zm165 0l110-85v-1q-77-54-144-124T198-14h-18q33 69 99 157t120 127q-41 34-83 114t-58 144h18q88-173 198-258z"/><glyph unicode="¼" glyph-name="onequarter" horiz-adv-x="606" d="M734 811L-99-55l-15 13 833 866 15-13zM215 437h-59l81 251q-31-18-58-30t-68-24l5 19q63 19 99 41t82 59h19L215 437zM402 73h56l-11-41h-57L356-85h-52l34 117H149l5 18 300 267h19L402 73zm-52 0l49 170L207 73h143z"/><glyph unicode="½" glyph-name="onehalf" horiz-adv-x="606" d="M734 811L-99-55l-15 13 833 866 15-13zM215 437h-59l81 251q-31-18-58-30t-68-24l5 19q63 19 99 41t82 59h19L215 437zm283-120l21-14 21-43q0-44-39-82T390 90q-36-25-51-37 22 0 63-9 6-1 28-5t35-4q21 0 34 9t13 26q0 11-4 19l17 7q10-15 10-32 0-29-24-48T445-4q-19 0-57 8-42 10-75 10-19 0-32-3T248 0l4 18 36 23q84 53 138 101t55 98q0 43-54 43-62 0-107-52l-14 11q26 32 66 53t89 22q37 0 58-14z"/><glyph unicode="¾" glyph-name="threequarters" horiz-adv-x="706" d="M834 811L1-55l-15 13 833 866 15-13zm-499-57l22-13 22-41q0-39-44-70t-95-44q47-2 78-19t31-55q0-47-48-83t-119-57-139-26v18q60 5 117 25t93 53 36 78q0 50-55 52-19-10-32-10-7 0-12 3t-6 10q0 19 44 17 43 16 68 40t25 54q0 18-12 27t-35 10q-60 0-116-56l-14 12q25 29 66 52t89 23q36 0 58-13zM502 73h56l-11-41h-57L456-85h-52l34 117H249l5 18 300 267h19L502 73zm-52 0l49 170L307 73h143z"/><glyph unicode="¿" glyph-name="questiondown" horiz-adv-x="446" d="M200 481l22 23 52 24q23 0 37-15t14-37q0-30-23-53t-52-23q-22 0-36 14t-14 37q0 30 22 53zm-38-652l37 13 47 36q-9 2-17 13t-8 27q0 21 15 35t38 14q20 0 30-11t10-31q0-32-30-58t-78-40-102-15q-66 0-106 25t-40 73q0 30 15 55t49 52 101 71l34 24q59 41 81 64t22 55q0 28-19 48t-49 20q-32 0-62-12t-43-32q10-1 18-11t8-24q0-16-13-28t-32-13q-34 0-34 35 0 30 27 53t69 36 82 13q52 0 83-25t32-71q0-33-17-60t-46-51-80-60l-23-16Q90-14 63-41t-27-62q0-29 23-48t64-20q39 0 76 13z"/><glyph unicode="À" glyph-name="Agrave" horiz-adv-x="629" d="M507 51l14-15 32-16-4-20q-40 3-109 3-81 0-120-3l4 20q34 2 52 8t27 24 7 52l-9 164H155L80 162Q33 96 33 63q0-41 74-43l-5-20Q47 3-12 3q-43 0-75-3l5 20q46 10 100 87l431 606h15l40-629q3-33 17-48zM400 288l-17 303-214-303h231zm46 514l-57 41q-40 27-60 46-19 19-19 39 0 12 7 20 9 10 23 10 11 0 23-6t20-15q16-17 42-58 49-70 72-100l-10-10q-41 33-98 74z"/><glyph unicode="Á" glyph-name="Aacute" horiz-adv-x="629" d="M507 51l14-15 32-16-4-20q-40 3-109 3-81 0-120-3l4 20q34 2 52 8t27 24 7 52l-9 164H155L80 162Q33 96 33 63q0-41 74-43l-5-20Q47 3-12 3q-43 0-75-3l5 20q46 10 100 87l431 606h15l40-629q3-33 17-48zM400 288l-17 303-214-303h231zm85 524l35 26 47 35q49 38 72 52 18 11 38 11 21 0 28-16 2-6 2-10 0-13-10-24t-25-20q-19-11-46-21t-33-13q-87-33-143-60l-7 11q42 29 77 55z"/><glyph unicode="Â" glyph-name="Acircumflex" horiz-adv-x="629" d="M507 51l14-15 32-16-4-20q-40 3-109 3-81 0-120-3l4 20q34 2 52 8t27 24 7 52l-9 164H155L80 162Q33 96 33 63q0-41 74-43l-5-20Q47 3-12 3q-43 0-75-3l5 20q46 10 100 87l431 606h15l40-629q3-33 17-48zM400 288l-17 303-214-303h231zm-42 505l-95-21-5 14q72 22 134 56t101 74h18q28-48 59-79t80-51l-4-14q-54 10-87 23t-58 27-32 18q-111-47-206-68z"/><glyph unicode="Ã" glyph-name="Atilde" horiz-adv-x="629" d="M507 51l14-15 32-16-4-20q-40 3-109 3-81 0-120-3l4 20q34 2 52 8t27 24 7 52l-9 164H155L80 162Q33 96 33 63q0-41 74-43l-5-20Q47 3-12 3q-43 0-75-3l5 20q46 10 100 87l431 606h15l40-629q3-33 17-48zM400 288l-17 303-214-303h231zm52 607l21-10 47-30q21-17 36-25t37-8q38 0 70 58l18-5q-22-52-57-77t-73-26q-32 0-53 10t-47 30q-21 17-36 25t-37 8q-38 0-70-58l-18 5q22 52 57 77t73 26q32 0 53-10z"/><glyph unicode="Ä" glyph-name="Adieresis" horiz-adv-x="629" d="M507 51l14-15 32-16-4-20q-40 3-109 3-81 0-120-3l4 20q34 2 52 8t27 24 7 52l-9 164H155L80 162Q33 96 33 63q0-41 74-43l-5-20Q47 3-12 3q-43 0-75-3l5 20q46 10 100 87l431 606h15l40-629q3-33 17-48zM400 288l-17 303-214-303h231zm-82 559l20 20 47 21q21 0 35-14t15-36q0-25-20-45t-47-21q-22 0-36 14t-14 37q0 24 20 44zm212 0l20 20 47 21q21 0 35-14t15-36q0-25-20-45t-47-21q-22 0-36 14t-14 37q0 24 20 44z"/><glyph unicode="Å" glyph-name="Aring" horiz-adv-x="629" d="M507 51l14-15 32-16-4-20q-40 3-109 3-81 0-120-3l4 20q34 2 52 8t27 24 7 52l-9 164H155L80 162Q33 96 33 63q0-41 74-43l-5-20Q47 3-12 3q-43 0-75-3l5 20q46 10 100 87l431 606h15l40-629q3-33 17-48zM400 288l-17 303-214-303h231zm124 637l24-22 25-58q0-42-33-72t-79-31q-36 0-59 21t-24 59q0 43 32 73t77 30q37 0 61-22zm-27-162l25 24 25 59q0 27-19 42t-45 16q-31 0-55-24t-24-57q0-28 18-44t43-16q32 0 57 24z"/><glyph unicode="Æ" glyph-name="AE" horiz-adv-x="897" d="M871 705l63 3q-13-36-38-118-9-30-13-62h-22q7 39 7 71 0 47-21 66t-67 20h-93q-35 0-52-5t-28-23-20-55l-63-236h108q28 0 47 15t30 37 26 60h22q-16-49-27-95l-7-27q-11-41-26-122h-22q0 16 3 31 2 22 2 31 0 22-11 35t-41 15H519l-64-240q-9-38-9-49 0-21 14-27t52-7h103q48 0 79 16t54 54 46 107h22q-8-22-21-72-17-59-26-128-68 3-226 3-190 0-288-3l4 20q36 2 54 8t28 23 21 55l64 240H263L40 94Q25 76 18 66t-7-19q0-23 62-27V0Q46 3-13 3q-43 0-67-3v20q31 2 86 64l496 561q1 25-13 33t-54 10l5 20q72-2 116-2l59 67h26l-60-67q59-1 146-1 144 0 207 3zM431 366l63 236 2 7-215-243h150z"/><glyph unicode="Ç" glyph-name="Ccedilla" horiz-adv-x="670" d="M679 622l-31-144h-22q6 39 6 69 0 48-16 79-18 37-53 57t-78 21q-83 0-160-78T199 430t-48-230q0-96 38-146T294 4q44 0 93 20t85 58q26 26 45 60t45 98h22Q537 67 525 0h-22q3 21 3 34 0 26-12 26-7 0-21-9-52-34-91-49t-98-16q-111 0-172 60T51 221q0 115 57 232t158 193 221 76q58 0 88-16t61-49q7-9 15-9 9 0 18 14t22 46h21q-33-86-64-230zM266-72q24 7 51 7 25 0 39-10t14-30q0-40-48-61t-105-22q-33 0-59 6t-41 16l7 15q32-13 80-13 33 0 67 12t35 39q0 24-38 24-20 0-41-7L275 4h27l-36-76z"/><glyph unicode="È" glyph-name="Egrave" horiz-adv-x="610" d="M583 705l59 3q-26-72-38-118-11-36-14-62h-23q9 58 9 80 0 43-22 60t-79 17h-73q-36 0-53-5t-29-23-21-55l-63-236h66q35 0 58 16t36 39 26 56q3 10 8 21h23q-21-66-35-119l-6-23q-14-53-32-142h-23l3 20q1 7 3 22t2 26q0 30-15 47t-54 17h-66l-64-240q-9-31-9-49 0-21 15-27t53-7h73q62 0 99 16t61 53 51 108h23q-11-29-22-72-16-56-27-128-68 3-229 3Q62 3-35 0l5 20q36 2 53 8t29 23 21 55l133 496q9 32 9 49 0 21-14 28t-53 9l5 20q98-3 290-3 140 0 199 3zm-172 97l-57 41q-40 27-60 46-19 19-19 39 0 12 7 20 9 10 23 10 11 0 23-6t20-15q16-17 42-58 49-70 72-100l-10-10q-41 33-98 74z"/><glyph unicode="É" glyph-name="Eacute" horiz-adv-x="610" d="M583 705l59 3q-26-72-38-118-11-36-14-62h-23q9 58 9 80 0 43-22 60t-79 17h-73q-36 0-53-5t-29-23-21-55l-63-236h66q35 0 58 16t36 39 26 56q3 10 8 21h23q-21-66-35-119l-6-23q-14-53-32-142h-23l3 20q1 7 3 22t2 26q0 30-15 47t-54 17h-66l-64-240q-9-31-9-49 0-21 15-27t53-7h73q62 0 99 16t61 53 51 108h23q-11-29-22-72-16-56-27-128-68 3-229 3Q62 3-35 0l5 20q36 2 53 8t29 23 21 55l133 496q9 32 9 49 0 21-14 28t-53 9l5 20q98-3 290-3 140 0 199 3zM450 812l35 26 47 35q49 38 72 52 18 11 38 11 21 0 28-16 2-6 2-10 0-13-10-24t-25-20q-19-11-46-21t-33-13q-87-33-143-60l-7 11q42 29 77 55z"/><glyph unicode="Ê" glyph-name="Ecircumflex" horiz-adv-x="610" d="M583 705l59 3q-26-72-38-118-11-36-14-62h-23q9 58 9 80 0 43-22 60t-79 17h-73q-36 0-53-5t-29-23-21-55l-63-236h66q35 0 58 16t36 39 26 56q3 10 8 21h23q-21-66-35-119l-6-23q-14-53-32-142h-23l3 20q1 7 3 22t2 26q0 30-15 47t-54 17h-66l-64-240q-9-31-9-49 0-21 15-27t53-7h73q62 0 99 16t61 53 51 108h23q-11-29-22-72-16-56-27-128-68 3-229 3Q62 3-35 0l5 20q36 2 53 8t29 23 21 55l133 496q9 32 9 49 0 21-14 28t-53 9l5 20q98-3 290-3 140 0 199 3zm-260 88l-95-21-5 14q72 22 134 56t101 74h18q28-48 59-79t80-51l-4-14q-54 10-87 23t-58 27-32 18q-111-47-206-68z"/><glyph unicode="Ë" glyph-name="Edieresis" horiz-adv-x="610" d="M583 705l59 3q-26-72-38-118-11-36-14-62h-23q9 58 9 80 0 43-22 60t-79 17h-73q-36 0-53-5t-29-23-21-55l-63-236h66q35 0 58 16t36 39 26 56q3 10 8 21h23q-21-66-35-119l-6-23q-14-53-32-142h-23l3 20q1 7 3 22t2 26q0 30-15 47t-54 17h-66l-64-240q-9-31-9-49 0-21 15-27t53-7h73q62 0 99 16t61 53 51 108h23q-11-29-22-72-16-56-27-128-68 3-229 3Q62 3-35 0l5 20q36 2 53 8t29 23 21 55l133 496q9 32 9 49 0 21-14 28t-53 9l5 20q98-3 290-3 140 0 199 3zM283 847l20 20 47 21q21 0 35-14t15-36q0-25-20-45t-47-21q-22 0-36 14t-14 37q0 24 20 44zm212 0l20 20 47 21q21 0 35-14t15-36q0-25-20-45t-47-21q-22 0-36 14t-14 37q0 24 20 44z"/><glyph unicode="Ì" glyph-name="Igrave" horiz-adv-x="341" d="M157 68V57q0-21 14-28t54-9l-4-20Q175 3 94 3 10 3-33 0l5 20q35 2 52 8t28 23 21 55l132 496q8 34 8 48 0 22-14 29t-53 9l5 20q41-3 127-3 80 0 128 3l-5-20q-37-2-54-8t-28-23-21-55L166 106q-9-38-9-49zm116 734l-57 41q-40 27-60 46-19 19-19 39 0 12 7 20 9 10 23 10 11 0 23-6t20-15q16-17 42-58 49-70 72-100l-10-10q-41 33-98 74z"/><glyph unicode="Í" glyph-name="Iacute" horiz-adv-x="341" d="M157 68V57q0-21 14-28t54-9l-4-20Q175 3 94 3 10 3-33 0l5 20q35 2 52 8t28 23 21 55l132 496q8 34 8 48 0 22-14 29t-53 9l5 20q41-3 127-3 80 0 128 3l-5-20q-37-2-54-8t-28-23-21-55L166 106q-9-38-9-49zm155 744l35 26 47 35q49 38 72 52 18 11 38 11 21 0 28-16 2-6 2-10 0-13-10-24t-25-20q-19-11-46-21t-33-13q-87-33-143-60l-7 11q42 29 77 55z"/><glyph unicode="Î" glyph-name="Icircumflex" horiz-adv-x="341" d="M157 68V57q0-21 14-28t54-9l-4-20Q175 3 94 3 10 3-33 0l5 20q35 2 52 8t28 23 21 55l132 496q8 34 8 48 0 22-14 29t-53 9l5 20q41-3 127-3 80 0 128 3l-5-20q-37-2-54-8t-28-23-21-55L166 106q-9-38-9-49zm28 725l-95-21-5 14q72 22 134 56t101 74h18q28-48 59-79t80-51l-4-14q-54 10-87 23t-58 27-32 18q-111-47-206-68z"/><glyph unicode="Ï" glyph-name="Idieresis" horiz-adv-x="341" d="M157 68V57q0-21 14-28t54-9l-4-20Q175 3 94 3 10 3-33 0l5 20q35 2 52 8t28 23 21 55l132 496q8 34 8 48 0 22-14 29t-53 9l5 20q41-3 127-3 80 0 128 3l-5-20q-37-2-54-8t-28-23-21-55L166 106q-9-38-9-49zm-12 779l20 20 47 21q21 0 35-14t15-36q0-25-20-45t-47-21q-22 0-36 14t-14 37q0 24 20 44zm212 0l20 20 47 21q21 0 35-14t15-36q0-25-20-45t-47-21q-22 0-36 14t-14 37q0 24 20 44z"/><glyph unicode="Ð" glyph-name="Eth" horiz-adv-x="725" d="M704 362l-62-112L472 69 230 0l-58 1q-56 2-82 2Q9 3-30 0l3 20q34 2 51 8t28 23 21 55l131 496q9 38 9 49 0 20-14 28t-53 9l3 20q34-3 97-3l85 1q68 2 91 2 141 0 211-56t71-165q0-125-62-237zM342 18l88 67 133 181 45 246q0 91-51 134t-163 44q-31 0-48-7t-29-25-20-54L166 104q-9-36-9-49 0-19 13-28t48-9q124 0 212 67zm90 323H20l6 25h412l-6-25z"/><glyph unicode="Ñ" glyph-name="Ntilde" horiz-adv-x="770" d="M844 754l14-14 14-37q0-27-16-49t-43-23q-20 0-29 11t-9 28q0 16 9 33t23 30h-3q-49-1-82-51-44-66-92-232T521-5h-22L271 639q-49-251-92-424T95-11Q73-40 49-57t-61-17q-60 0-60 52 0 27 16 49t43 22q20 0 29-11t9-28q0-16-9-33T-7-53h3q51 1 83 52 37 59 77 211t87 392q6 29 6 45 0 24-16 31t-61 10l5 20q32-3 89-3 46 0 81 3l189-553q43 192 84 332t84 203q44 64 108 64 32 0 46-14zM505 895l21-10 47-30q21-17 36-25t37-8q38 0 70 58l18-5q-22-52-57-77t-73-26q-32 0-53 10t-47 30q-21 17-36 25t-37 8q-38 0-70-58l-18 5q22 52 57 77t73 26q32 0 53-10z"/><glyph unicode="Ò" glyph-name="Ograve" horiz-adv-x="729" d="M54 339l53 116 148 191 216 76q112 0 174-63t62-178q0-113-53-228T504 62 289-14q-111 0-173 63T54 226q0 113 53 229zm333 365l-70-72-114-186-43-233q0-97 38-153T298 4q75 0 145 72t114 186 43 233q0 97-38 153t-100 56q-75 0-145-72zm67 98l-57 41q-40 27-60 46-19 19-19 39 0 12 7 20 9 10 23 10 11 0 23-6t20-15q16-17 42-58 49-70 72-100l-10-10q-41 33-98 74z"/><glyph unicode="Ó" glyph-name="Oacute" horiz-adv-x="729" d="M54 339l53 116 148 191 216 76q112 0 174-63t62-178q0-113-53-228T504 62 289-14q-111 0-173 63T54 226q0 113 53 229zm333 365l-70-72-114-186-43-233q0-97 38-153T298 4q75 0 145 72t114 186 43 233q0 97-38 153t-100 56q-75 0-145-72zm106 108l35 26 47 35q49 38 72 52 18 11 38 11 21 0 28-16 2-6 2-10 0-13-10-24t-25-20q-19-11-46-21t-33-13q-87-33-143-60l-7 11q42 29 77 55z"/><glyph unicode="Ô" glyph-name="Ocircumflex" horiz-adv-x="729" d="M54 339l53 116 148 191 216 76q112 0 174-63t62-178q0-113-53-228T504 62 289-14q-111 0-173 63T54 226q0 113 53 229zm333 365l-70-72-114-186-43-233q0-97 38-153T298 4q75 0 145 72t114 186 43 233q0 97-38 153t-100 56q-75 0-145-72zm-21 89l-95-21-5 14q72 22 134 56t101 74h18q28-48 59-79t80-51l-4-14q-54 10-87 23t-58 27-32 18q-111-47-206-68z"/><glyph unicode="Õ" glyph-name="Otilde" horiz-adv-x="729" d="M54 339l53 116 148 191 216 76q112 0 174-63t62-178q0-113-53-228T504 62 289-14q-111 0-173 63T54 226q0 113 53 229zm333 365l-70-72-114-186-43-233q0-97 38-153T298 4q75 0 145 72t114 186 43 233q0 97-38 153t-100 56q-75 0-145-72zm73 191l21-10 47-30q21-17 36-25t37-8q38 0 70 58l18-5q-22-52-57-77t-73-26q-32 0-53 10t-47 30q-21 17-36 25t-37 8q-38 0-70-58l-18 5q22 52 57 77t73 26q32 0 53-10z"/><glyph unicode="Ö" glyph-name="Odieresis" horiz-adv-x="729" d="M54 339l53 116 148 191 216 76q112 0 174-63t62-178q0-113-53-228T504 62 289-14q-111 0-173 63T54 226q0 113 53 229zm333 365l-70-72-114-186-43-233q0-97 38-153T298 4q75 0 145 72t114 186 43 233q0 97-38 153t-100 56q-75 0-145-72zm-61 143l20 20 47 21q21 0 35-14t15-36q0-25-20-45t-47-21q-22 0-36 14t-14 37q0 24 20 44zm212 0l20 20 47 21q21 0 35-14t15-36q0-25-20-45t-47-21q-22 0-36 14t-14 37q0 24 20 44z"/><glyph unicode="×" glyph-name="multiply" horiz-adv-x="513" d="M250 355L125 530l26 18 123-175 227 177 16-22-227-176 125-173-25-18-124 173L42 160l-15 22 223 173z"/><glyph unicode="Ø" glyph-name="Oslash" horiz-adv-x="729" d="M666 633q41-59 41-152 0-113-53-228T504 62 289-14q-113 0-175 65L-3-73l-17 14L99 68q-45 61-45 158 0 113 53 229t148 191 216 76q121 0 183-73l118 124 15-13-121-127zm-279 71l-70-72-114-186-43-233q0-42 8-80l421 454q-16 56-49 86t-78 31q-75 0-145-72zM373 4l70 72 114 186 43 233q0 37-6 67L175 108q16-49 48-76t75-28q75 0 145 72z"/><glyph unicode="Ù" glyph-name="Ugrave" horiz-adv-x="682" d="M638 617v19q0 28-17 39t-57 13l5 20q35-3 101-3 59 0 94 3l-5-20q-35-2-54-10t-31-28-21-58l-78-301q-36-138-98-212-37-43-90-68T272-14q-107 0-154 54-18 21-26 45t-9 57q0 54 25 146l83 314q8 34 8 48 0 22-14 29t-53 9l6 20q40-3 129-3 77 0 125 3l-6-20q-37-2-54-8t-28-23-21-55l-88-331q-22-85-22-135 0-55 27-85t91-30q105 0 165 68t93 191l82 312q7 25 7 44zM464 802l-57 41q-40 27-60 46-19 19-19 39 0 12 7 20 9 10 23 10 11 0 23-6t20-15q16-17 42-58 49-70 72-100l-10-10q-41 33-98 74z"/><glyph unicode="Ú" glyph-name="Uacute" horiz-adv-x="682" d="M638 617v19q0 28-17 39t-57 13l5 20q35-3 101-3 59 0 94 3l-5-20q-35-2-54-10t-31-28-21-58l-78-301q-36-138-98-212-37-43-90-68T272-14q-107 0-154 54-18 21-26 45t-9 57q0 54 25 146l83 314q8 34 8 48 0 22-14 29t-53 9l6 20q40-3 129-3 77 0 125 3l-6-20q-37-2-54-8t-28-23-21-55l-88-331q-22-85-22-135 0-55 27-85t91-30q105 0 165 68t93 191l82 312q7 25 7 44zM503 812l35 26 47 35q49 38 72 52 18 11 38 11 21 0 28-16 2-6 2-10 0-13-10-24t-25-20q-19-11-46-21t-33-13q-87-33-143-60l-7 11q42 29 77 55z"/><glyph unicode="Û" glyph-name="Ucircumflex" horiz-adv-x="682" d="M638 617v19q0 28-17 39t-57 13l5 20q35-3 101-3 59 0 94 3l-5-20q-35-2-54-10t-31-28-21-58l-78-301q-36-138-98-212-37-43-90-68T272-14q-107 0-154 54-18 21-26 45t-9 57q0 54 25 146l83 314q8 34 8 48 0 22-14 29t-53 9l6 20q40-3 129-3 77 0 125 3l-6-20q-37-2-54-8t-28-23-21-55l-88-331q-22-85-22-135 0-55 27-85t91-30q105 0 165 68t93 191l82 312q7 25 7 44zM376 793l-95-21-5 14q72 22 134 56t101 74h18q28-48 59-79t80-51l-4-14q-54 10-87 23t-58 27-32 18q-111-47-206-68z"/><glyph unicode="Ü" glyph-name="Udieresis" horiz-adv-x="682" d="M638 617v19q0 28-17 39t-57 13l5 20q35-3 101-3 59 0 94 3l-5-20q-35-2-54-10t-31-28-21-58l-78-301q-36-138-98-212-37-43-90-68T272-14q-107 0-154 54-18 21-26 45t-9 57q0 54 25 146l83 314q8 34 8 48 0 22-14 29t-53 9l6 20q40-3 129-3 77 0 125 3l-6-20q-37-2-54-8t-28-23-21-55l-88-331q-22-85-22-135 0-55 27-85t91-30q105 0 165 68t93 191l82 312q7 25 7 44zM336 847l20 20 47 21q21 0 35-14t15-36q0-25-20-45t-47-21q-22 0-36 14t-14 37q0 24 20 44zm212 0l20 20 47 21q21 0 35-14t15-36q0-25-20-45t-47-21q-22 0-36 14t-14 37q0 24 20 44z"/><glyph unicode="Ý" glyph-name="Yacute" horiz-adv-x="670" d="M729 722l13-15 14-38q0-25-15-47t-44-23q-20 0-29 11t-9 29q0 16 9 32t23 30h-3q-27-1-55-22-52-38-112-122T404 338l-58-232q-8-34-8-48 0-22 14-29t53-9l-5-20q-45 3-124 3-87 0-131-3l5 20q36 2 54 8t29 23 20 55l59 233q-16 142-43 235t-74 93q-17 0-28-11t-20-36l-28-82H97l33 97q16 47 36 67t62 20q53 0 85-43t51-120 31-199q37 93 85 168t102 129q65 65 118 65 29 0 42-15zm-230 90l35 26 47 35q49 38 72 52 18 11 38 11 21 0 28-16 2-6 2-10 0-13-10-24t-25-20q-19-11-46-21t-33-13q-87-33-143-60l-7 11q42 29 77 55z"/><glyph unicode="Þ" glyph-name="Thorn" horiz-adv-x="605" d="M166 106q-9-38-9-49 0-21 14-28t54-9l-4-20Q175 3 94 3 10 3-33 0l5 20q35 2 52 8t28 23 21 55l132 496q8 34 8 48 0 22-14 29t-53 9l5 20q41-3 127-3 80 0 128 3l-5-20q-37-2-54-8t-28-23-21-55l-8-29q70 2 106 2 98 0 148-40t51-111q0-78-47-140t-134-97-196-35h-40l-12-46zm18 66h44q140 0 203 73t63 195q0 59-30 87t-97 29q-49 0-82-3L184 172z"/><glyph unicode="ß" glyph-name="germandbls" horiz-adv-x="547" d="M323 767l-27-40-54-138L41-174q-54-2-90-14l182 695q25 96 55 155t76 89 117 31q70 0 103-29t33-72q0-43-27-79t-81-84l-24-23q-34-31-34-75 0-30 12-53t38-56l16-21q28-38 43-73t16-72q0-47-24-83T387 6t-90-20q-52 0-90 22t-38 64q0 22 11 35t28 13q24 0 33-21t10-47q0-14-6-38 22-8 42-8 46 0 75 28t30 76q0 65-52 131-5 7-24 30t-30 47-11 51q0 32 15 53t48 49q31 28 38 36 64 67 64 154 0 53-20 79t-54 27q-43 0-70-40z"/><glyph unicode="à" glyph-name="agrave" horiz-adv-x="523" d="M455 163h19l-25-73q-20-55-51-79t-64-25q-19 0-33 7t-22 19q-9 15-9 35 0 21 7 47t9 33l18 72Q256 87 207 37T103-14q-46 0-70 33T9 107q0 81 43 181t112 170 140 70q27 0 44-20t20-56l16 62q55 2 92 14L351 86q-1-4-4-15t-3-22q0-25 22-25 44 0 77 102l12 37zM160 18l39 43 76 114 62 153 18 71q1 8 1 22 0 41-14 64t-41 24q-43 0-91-66t-80-164T97 95q0-41 9-59t26-18q28 0 67 43zm156 632l-55 67q-5 6-22 27t-29 40q-10 17-10 32 0 20 16 28 7 3 16 3 25 0 43-31 10-17 33-75 26-69 58-136l-13-6q-37 51-92 118z"/><glyph unicode="á" glyph-name="aacute" horiz-adv-x="523" d="M455 163h19l-25-73q-20-55-51-79t-64-25q-19 0-33 7t-22 19q-9 15-9 35 0 21 7 47t9 33l18 72Q256 87 207 37T103-14q-46 0-70 33T9 107q0 81 43 181t112 170 140 70q27 0 44-20t20-56l16 62q55 2 92 14L351 86q-1-4-4-15t-3-22q0-25 22-25 44 0 77 102l12 37zM160 18l39 43 76 114 62 153 18 71q1 8 1 22 0 41-14 64t-41 24q-43 0-91-66t-80-164T97 95q0-41 9-59t26-18q28 0 67 43zm173 637l53 71q38 52 58 72 19 22 41 22 14 0 22-7 8-8 8-19 0-20-23-43-22-23-68-55-7-5-42-32t-78-65l-10 9q39 47 92 118z"/><glyph unicode="â" glyph-name="acircumflex" horiz-adv-x="523" d="M455 163h19l-25-73q-20-55-51-79t-64-25q-19 0-33 7t-22 19q-9 15-9 35 0 21 7 47t9 33l18 72Q256 87 207 37T103-14q-46 0-70 33T9 107q0 81 43 181t112 170 140 70q27 0 44-20t20-56l16 62q55 2 92 14L351 86q-1-4-4-15t-3-22q0-25 22-25 44 0 77 102l12 37zM160 18l39 43 76 114 62 153 18 71q1 8 1 22 0 41-14 64t-41 24q-43 0-91-66t-80-164T97 95q0-41 9-59t26-18q28 0 67 43zm148 672l-46-28-91-46-5 14q65 28 122 74t93 98h18q11-63 38-103t81-69l-4-14q-58 16-95 41t-73 63q-38-30-84-58z"/><glyph unicode="ã" glyph-name="atilde" horiz-adv-x="523" d="M455 163h19l-25-73q-20-55-51-79t-64-25q-19 0-33 7t-22 19q-9 15-9 35 0 21 7 47t9 33l18 72Q256 87 207 37T103-14q-46 0-70 33T9 107q0 81 43 181t112 170 140 70q27 0 44-20t20-56l16 62q55 2 92 14L351 86q-1-4-4-15t-3-22q0-25 22-25 44 0 77 102l12 37zM160 18l39 43 76 114 62 153 18 71q1 8 1 22 0 41-14 64t-41 24q-43 0-91-66t-80-164T97 95q0-41 9-59t26-18q28 0 67 43zm178 750l19-10 40-30q19-17 32-25t33-8q38 0 70 58l18-5q-22-52-57-77t-73-26q-29 0-48 10t-40 30q-19 17-32 25t-33 8q-38 0-70-58l-18 5q22 52 57 77t73 26q29 0 48-10z"/><glyph unicode="ä" glyph-name="adieresis" horiz-adv-x="523" d="M455 163h19l-25-73q-20-55-51-79t-64-25q-19 0-33 7t-22 19q-9 15-9 35 0 21 7 47t9 33l18 72Q256 87 207 37T103-14q-46 0-70 33T9 107q0 81 43 181t112 170 140 70q27 0 44-20t20-56l16 62q55 2 92 14L351 86q-1-4-4-15t-3-22q0-25 22-25 44 0 77 102l12 37zM160 18l39 43 76 114 62 153 18 71q1 8 1 22 0 41-14 64t-41 24q-43 0-91-66t-80-164T97 95q0-41 9-59t26-18q28 0 67 43zm49 684l20 20 47 21q21 0 35-14t15-36q0-25-20-45t-47-21q-22 0-36 14t-14 37q0 24 20 44zm212 0l20 20 47 21q21 0 35-14t15-36q0-25-20-45t-47-21q-22 0-36 14t-14 37q0 24 20 44z"/><glyph unicode="å" glyph-name="aring" horiz-adv-x="523" d="M455 163h19l-25-73q-20-55-51-79t-64-25q-19 0-33 7t-22 19q-9 15-9 35 0 21 7 47t9 33l18 72Q256 87 207 37T103-14q-46 0-70 33T9 107q0 81 43 181t112 170 140 70q27 0 44-20t20-56l16 62q55 2 92 14L351 86q-1-4-4-15t-3-22q0-25 22-25 44 0 77 102l12 37zM160 18l39 43 76 114 62 153 18 71q1 8 1 22 0 41-14 64t-41 24q-43 0-91-66t-80-164T97 95q0-41 9-59t26-18q28 0 67 43zm268 773l24-22 25-58q0-42-33-72t-79-31q-36 0-59 21t-24 59q0 43 32 73t77 30q37 0 61-22zm-27-162l25 24 25 59q0 27-19 42t-45 16q-31 0-55-24t-24-57q0-28 18-44t43-16q32 0 57 24z"/><glyph unicode="æ" glyph-name="ae" horiz-adv-x="659" d="M645 374l-90-58-210-96q-10-53-10-96 0-96 69-96 82 0 150 100l20-8q-32-55-86-94T373-14q-49 0-81 22t-45 67q-57-89-144-89-50 0-75 30T3 97q0 86 54 185t138 168 163 68q19 0 36-8t30-27q61 45 127 45 42 0 68-19t26-57q0-78-90-136zM500 509l-36-37-67-100-48-133q99 35 138 65 37 29 57 70t21 90q0 21-9 33t-27 12q-29 0-65-37zM160 18l28 19 55 60q-2 20-2 30 0 52 21 117t61 127 88 102q-17 24-46 24-53 0-118-60T136 281 91 85q0-31 11-49t33-18q25 0 53 19z"/><glyph unicode="ç" glyph-name="ccedilla" horiz-adv-x="432" d="M273 508l-49-54-81-143-32-187q0-49 18-72t52-24q82 0 150 100l20-8q-32-55-86-94T150-14q-61 0-96 37T18 133q0 81 38 174t107 157 157 64q46 0 77-23t31-62q0-31-20-55t-51-25q-20 0-30 11t-11 28q0 28 22 48t53 27q-21 31-68 31-50 0-99-54zM123-72q19 7 41 7 20 0 31-10t12-30q0-40-38-61t-85-22q-26 0-47 6T4-166l7 15q29-13 60-13 23 0 47 12t25 39q0 24-28 24-16 0-31-7l46 96h27l-34-72z"/><glyph unicode="è" glyph-name="egrave" horiz-adv-x="429" d="M416 381l-91-61-208-99q-11-50-11-97 0-96 69-96 86 0 154 100l16-8q-32-55-86-94T144-14q-62 0-97 36T12 127q0 76 44 171t121 163 165 67q32 0 53-17t21-49q0-81-91-142zM288 509l-39-37-74-100-53-132q95 33 136 64 37 29 57 70t21 90q0 27-4 36t-12 9q-32 0-71-37zm3 141l-55 67q-5 6-22 27t-29 40q-10 17-10 32 0 20 16 28 7 3 16 3 25 0 43-31 10-17 33-75 26-69 58-136l-13-6q-37 51-92 118z"/><glyph unicode="é" glyph-name="eacute" horiz-adv-x="429" d="M416 381l-91-61-208-99q-11-50-11-97 0-96 69-96 86 0 154 100l16-8q-32-55-86-94T144-14q-62 0-97 36T12 127q0 76 44 171t121 163 165 67q32 0 53-17t21-49q0-81-91-142zM288 509l-39-37-74-100-53-132q95 33 136 64 37 29 57 70t21 90q0 27-4 36t-12 9q-32 0-71-37zm20 146l53 71q38 52 58 72 19 22 41 22 14 0 22-7 8-8 8-19 0-20-23-43-22-23-68-55-7-5-42-32t-78-65l-10 9q39 47 92 118z"/><glyph unicode="ê" glyph-name="ecircumflex" horiz-adv-x="429" d="M416 381l-91-61-208-99q-11-50-11-97 0-96 69-96 86 0 154 100l16-8q-32-55-86-94T144-14q-62 0-97 36T12 127q0 76 44 171t121 163 165 67q32 0 53-17t21-49q0-81-91-142zM288 509l-39-37-74-100-53-132q95 33 136 64 37 29 57 70t21 90q0 27-4 36t-12 9q-32 0-71-37zm-5 181l-46-28-91-46-5 14q65 28 122 74t93 98h18q11-63 38-103t81-69l-4-14q-58 16-95 41t-73 63q-38-30-84-58z"/><glyph unicode="ë" glyph-name="edieresis" horiz-adv-x="429" d="M416 381l-91-61-208-99q-11-50-11-97 0-96 69-96 86 0 154 100l16-8q-32-55-86-94T144-14q-62 0-97 36T12 127q0 76 44 171t121 163 165 67q32 0 53-17t21-49q0-81-91-142zM288 509l-39-37-74-100-53-132q95 33 136 64 37 29 57 70t21 90q0 27-4 36t-12 9q-32 0-71-37zM184 702l20 20 47 21q21 0 35-14t15-36q0-25-20-45t-47-21q-22 0-36 14t-14 37q0 24 20 44zm212 0l20 20 47 21q21 0 35-14t15-36q0-25-20-45t-47-21q-22 0-36 14t-14 37q0 24 20 44z"/><glyph unicode="ì" glyph-name="igrave" horiz-adv-x="302" d="M166 453v13q0 25-22 25-23 0-41-24t-38-78l-14-37H32l26 73q20 57 53 80t71 23q66 0 66-63 0-33-16-77L125 85q-8-24-8-37 0-25 24-25 21 0 39 23t39 79l14 37h19l-26-73q-20-55-52-79t-71-24q-70 0-70 61 0 29 18 79l107 303q8 24 8 37zm19 197l-55 67q-5 6-22 27t-29 40q-10 17-10 32 0 20 16 28 7 3 16 3 25 0 43-31 10-17 33-75 26-69 58-136l-13-6q-37 51-92 118z"/><glyph unicode="í" glyph-name="iacute" horiz-adv-x="302" d="M166 453v13q0 25-22 25-23 0-41-24t-38-78l-14-37H32l26 73q20 57 53 80t71 23q66 0 66-63 0-33-16-77L125 85q-8-24-8-37 0-25 24-25 21 0 39 23t39 79l14 37h19l-26-73q-20-55-52-79t-71-24q-70 0-70 61 0 29 18 79l107 303q8 24 8 37zm36 202l53 71q38 52 58 72 19 22 41 22 14 0 22-7 8-8 8-19 0-20-23-43-22-23-68-55-7-5-42-32t-78-65l-10 9q39 47 92 118z"/><glyph unicode="î" glyph-name="icircumflex" horiz-adv-x="302" d="M166 453v13q0 25-22 25-23 0-41-24t-38-78l-14-37H32l26 73q20 57 53 80t71 23q66 0 66-63 0-33-16-77L125 85q-8-24-8-37 0-25 24-25 21 0 39 23t39 79l14 37h19l-26-73q-20-55-52-79t-71-24q-70 0-70 61 0 29 18 79l107 303q8 24 8 37zm11 237l-46-28-91-46-5 14q65 28 122 74t93 98h18q11-63 38-103t81-69l-4-14q-58 16-95 41t-73 63q-38-30-84-58z"/><glyph unicode="ï" glyph-name="idieresis" horiz-adv-x="302" d="M166 453v13q0 25-22 25-23 0-41-24t-38-78l-14-37H32l26 73q20 57 53 80t71 23q66 0 66-63 0-33-16-77L125 85q-8-24-8-37 0-25 24-25 21 0 39 23t39 79l14 37h19l-26-73q-20-55-52-79t-71-24q-70 0-70 61 0 29 18 79l107 303q8 24 8 37zM78 702l20 20 47 21q21 0 35-14t15-36q0-25-20-45t-47-21q-22 0-36 14t-14 37q0 24 20 44zm212 0l20 20 47 21q21 0 35-14t15-36q0-25-20-45t-47-21q-22 0-36 14t-14 37q0 24 20 44z"/><glyph unicode="ð" glyph-name="eth" horiz-adv-x="487" d="M345 675q102-107 102-281 0-90-34-185T312 50 158-14Q94-14 58 25T21 143q0 78 34 169t99 153 147 63q31 0 53-15-14 80-55 141l-185-82-6 18 179 79q-45 56-122 96l12 17q93-35 154-93l160 71 6-18-152-67zM215 6l45 65 73 162 28 188q0 28-4 72-19 15-56 15-50 0-94-65t-72-163-28-187q0-45 14-66t43-21q51 0 96 65z"/><glyph unicode="ñ" glyph-name="ntilde" horiz-adv-x="580" d="M530 162l-25-73Q469-14 384-14q-45 0-63 29-8 12-8 33 0 27 17 78l95 286q10 33 10 49 0 35-32 35-38 0-86-55t-96-153-81-215L122 0H35l120 429q7 26 7 37 0 25-22 25t-39-22-38-80l-13-37H31l25 73q36 103 119 103 32 0 45-15t14-44q0-27-14-81l-35-137q64 151 122 214t129 63q81 0 81-75 0-33-15-76L405 85q-8-24-8-38 0-24 24-24 20 0 38 22t39 80l13 37h19zM350 768l19-10 40-30q19-17 32-25t33-8q38 0 70 58l18-5q-22-52-57-77t-73-26q-29 0-48 10t-40 30q-19 17-32 25t-33 8q-38 0-70-58l-18 5q22 52 57 77t73 26q29 0 48-10z"/><glyph unicode="ò" glyph-name="ograve" horiz-adv-x="488" d="M21 222l35 90 101 153 153 63q64 0 100-39t37-118q0-79-35-169T311 49 158-14Q94-14 58 25T21 143q0 79 35 169zm232 286l-45-65-73-162-28-188q0-45 14-66t43-21q51 0 96 65t73 162 28 188q0 45-14 66t-43 21q-51 0-96-65zm58 142l-55 67q-5 6-22 27t-29 40q-10 17-10 32 0 20 16 28 7 3 16 3 25 0 43-31 10-17 33-75 26-69 58-136l-13-6q-37 51-92 118z"/><glyph unicode="ó" glyph-name="oacute" horiz-adv-x="488" d="M21 222l35 90 101 153 153 63q64 0 100-39t37-118q0-79-35-169T311 49 158-14Q94-14 58 25T21 143q0 79 35 169zm232 286l-45-65-73-162-28-188q0-45 14-66t43-21q51 0 96 65t73 162 28 188q0 45-14 66t-43 21q-51 0-96-65zm75 147l53 71q38 52 58 72 19 22 41 22 14 0 22-7 8-8 8-19 0-20-23-43-22-23-68-55-7-5-42-32t-78-65l-10 9q39 47 92 118z"/><glyph unicode="ô" glyph-name="ocircumflex" horiz-adv-x="488" d="M21 222l35 90 101 153 153 63q64 0 100-39t37-118q0-79-35-169T311 49 158-14Q94-14 58 25T21 143q0 79 35 169zm232 286l-45-65-73-162-28-188q0-45 14-66t43-21q51 0 96 65t73 162 28 188q0 45-14 66t-43 21q-51 0-96-65zm50 182l-46-28-91-46-5 14q65 28 122 74t93 98h18q11-63 38-103t81-69l-4-14q-58 16-95 41t-73 63q-38-30-84-58z"/><glyph unicode="õ" glyph-name="otilde" horiz-adv-x="488" d="M21 222l35 90 101 153 153 63q64 0 100-39t37-118q0-79-35-169T311 49 158-14Q94-14 58 25T21 143q0 79 35 169zm232 286l-45-65-73-162-28-188q0-45 14-66t43-21q51 0 96 65t73 162 28 188q0 45-14 66t-43 21q-51 0-96-65zm80 260l19-10 40-30q19-17 32-25t33-8q38 0 70 58l18-5q-22-52-57-77t-73-26q-29 0-48 10t-40 30q-19 17-32 25t-33 8q-38 0-70-58l-18 5q22 52 57 77t73 26q29 0 48-10z"/><glyph unicode="ö" glyph-name="odieresis" horiz-adv-x="488" d="M21 222l35 90 101 153 153 63q64 0 100-39t37-118q0-79-35-169T311 49 158-14Q94-14 58 25T21 143q0 79 35 169zm232 286l-45-65-73-162-28-188q0-45 14-66t43-21q51 0 96 65t73 162 28 188q0 45-14 66t-43 21q-51 0-96-65zm-49 194l20 20 47 21q21 0 35-14t15-36q0-25-20-45t-47-21q-22 0-36 14t-14 37q0 24 20 44zm212 0l20 20 47 21q21 0 35-14t15-36q0-25-20-45t-47-21q-22 0-36 14t-14 37q0 24 20 44z"/><glyph unicode="÷" glyph-name="divide" horiz-adv-x="657" d="M332 510l23 22 50 22q19 0 30-11t12-29q0-28-23-49t-51-21q-19 0-30 11t-11 28q0 27 23 49zM96 370h501l-9-30H87l9 30zm153-148l23 22 50 22q19 0 30-11t12-29q0-28-23-49t-51-22q-18 0-29 11t-12 29q0 27 23 49z"/><glyph unicode="ø" glyph-name="oslash" horiz-adv-x="488" d="M421 474q26-38 26-103 0-79-35-169T311 49 158-14Q91-14 55 28L-29-73l-14 13L43 45q-22 39-22 98 0 79 35 169t101 153 153 63q64 0 100-39l80 97 13-12-82-100zm-166 34l-44-60-72-153-32-182 253 327q-4 68-56 68-49 0-93-60zM215 6l44 62 72 158 30 185L107 80q4-74 57-74 51 0 95 62z"/><glyph unicode="ù" glyph-name="ugrave" horiz-adv-x="567" d="M499 162h19l-25-73Q457-14 372-14q-16 0-30 7t-21 20q-6 14-6 31 0 26 14 82l31 125Q302 108 247 47T127-14q-84 0-84 77 0 32 14 74l97 292q8 24 8 37 0 25-24 25-20 0-38-22t-39-80l-13-37H29l25 73q36 103 121 103 70 0 70-62 0-30-16-78l-95-286q-10-30-10-50 0-34 32-34 39 0 86 57t93 160 80 230l12 49q57 2 91 14L394 85q-7-26-7-39 0-23 21-23 22 0 40 23t38 79l13 37zM301 650l-55 67q-5 6-22 27t-29 40q-10 17-10 32 0 20 16 28 7 3 16 3 25 0 43-31 10-17 33-75 26-69 58-136l-13-6q-37 51-92 118z"/><glyph unicode="ú" glyph-name="uacute" horiz-adv-x="567" d="M499 162h19l-25-73Q457-14 372-14q-16 0-30 7t-21 20q-6 14-6 31 0 26 14 82l31 125Q302 108 247 47T127-14q-84 0-84 77 0 32 14 74l97 292q8 24 8 37 0 25-24 25-20 0-38-22t-39-80l-13-37H29l25 73q36 103 121 103 70 0 70-62 0-30-16-78l-95-286q-10-30-10-50 0-34 32-34 39 0 86 57t93 160 80 230l12 49q57 2 91 14L394 85q-7-26-7-39 0-23 21-23 22 0 40 23t38 79l13 37zM318 655l53 71q38 52 58 72 19 22 41 22 14 0 22-7 8-8 8-19 0-20-23-43-22-23-68-55-7-5-42-32t-78-65l-10 9q39 47 92 118z"/><glyph unicode="û" glyph-name="ucircumflex" horiz-adv-x="567" d="M499 162h19l-25-73Q457-14 372-14q-16 0-30 7t-21 20q-6 14-6 31 0 26 14 82l31 125Q302 108 247 47T127-14q-84 0-84 77 0 32 14 74l97 292q8 24 8 37 0 25-24 25-20 0-38-22t-39-80l-13-37H29l25 73q36 103 121 103 70 0 70-62 0-30-16-78l-95-286q-10-30-10-50 0-34 32-34 39 0 86 57t93 160 80 230l12 49q57 2 91 14L394 85q-7-26-7-39 0-23 21-23 22 0 40 23t38 79l13 37zM293 690l-46-28-91-46-5 14q65 28 122 74t93 98h18q11-63 38-103t81-69l-4-14q-58 16-95 41t-73 63q-38-30-84-58z"/><glyph unicode="ü" glyph-name="udieresis" horiz-adv-x="567" d="M499 162h19l-25-73Q457-14 372-14q-16 0-30 7t-21 20q-6 14-6 31 0 26 14 82l31 125Q302 108 247 47T127-14q-84 0-84 77 0 32 14 74l97 292q8 24 8 37 0 25-24 25-20 0-38-22t-39-80l-13-37H29l25 73q36 103 121 103 70 0 70-62 0-30-16-78l-95-286q-10-30-10-50 0-34 32-34 39 0 86 57t93 160 80 230l12 49q57 2 91 14L394 85q-7-26-7-39 0-23 21-23 22 0 40 23t38 79l13 37zM194 702l20 20 47 21q21 0 35-14t15-36q0-25-20-45t-47-21q-22 0-36 14t-14 37q0 24 20 44zm212 0l20 20 47 21q21 0 35-14t15-36q0-25-20-45t-47-21q-22 0-36 14t-14 37q0 24 20 44z"/><glyph unicode="ý" glyph-name="yacute" horiz-adv-x="481" d="M458 528v-81q0-95-59-220T261 3Q168-113 64-163q-53-25-87-25-21 0-35 11t-15 30q0 21 16 33t38 12q21 0 40-10t43-29q78 42 150 120l-74 448q-5 31-12 43t-20 12q-13 0-26-19t-33-73l-13-37H17l25 73q35 102 115 102 32 0 48-20t24-72l51-376q55 76 95 159t56 166q-30 16-53 39t-23 53q0 23 14 37t37 14q52 0 52-81zM286 655l53 71q38 52 58 72 19 22 41 22 14 0 22-7 8-8 8-19 0-20-23-43-22-23-68-55-7-5-42-32t-78-65l-10 9q39 47 92 118z"/><glyph unicode="þ" glyph-name="thorn" horiz-adv-x="551" d="M458 528l27-35 28-106q0-81-36-175T374 52 220-14q-28 0-49 15t-32 43L101-88q-4-12-4-24 0-26 22-37t63-11l-6-21-21 1q-87 3-113 3-27 0-111-4l6 21q36 0 52 13t26 49l188 666q-30-66-70-117T33 344l-11 13q48 47 79 82t63 87 63 126l36 129q54 2 91 14L228 355q44 92 87 132t94 41q49 0 76-35zM272 9l48 66 77 162 30 172q0 43-12 65t-35 22q-26 0-60-33t-67-91-56-123L146 69q13-33 30-46t43-14q53 0 101 66z"/><glyph unicode="ÿ" glyph-name="ydieresis" horiz-adv-x="481" d="M458 528v-81q0-95-59-220T261 3Q168-113 64-163q-53-25-87-25-21 0-35 11t-15 30q0 21 16 33t38 12q21 0 40-10t43-29q78 42 150 120l-74 448q-5 31-12 43t-20 12q-13 0-26-19t-33-73l-13-37H17l25 73q35 102 115 102 32 0 48-20t24-72l51-376q55 76 95 159t56 166q-30 16-53 39t-23 53q0 23 14 37t37 14q52 0 52-81zM162 702l20 20 47 21q21 0 35-14t15-36q0-25-20-45t-47-21q-22 0-36 14t-14 37q0 24 20 44zm212 0l20 20 47 21q21 0 35-14t15-36q0-25-20-45t-47-21q-22 0-36 14t-14 37q0 24 20 44z"/><glyph unicode="–" glyph-name="endash" horiz-adv-x="728" d="M661 284l-11-40H50l10 40h601z"/><glyph unicode="—" glyph-name="emdash" horiz-adv-x="1002" d="M935 284l-11-40H50l10 40h875z"/><glyph unicode="‘" glyph-name="quoteleft" horiz-adv-x="239" d="M123 592l39 51 108 85 5-14q-47-29-75-63t-31-68q29 25 52 25 18 0 28-9t10-26q0-21-13-43t-35-36-44-14q-22 0-33 17t-11 42q0 53 39 104z"/><glyph unicode="’" glyph-name="quoteright" horiz-adv-x="240" d="M277 598l-39-51-108-85-5 14q47 29 75 63t31 68q-29-25-52-25-18 0-28 9t-10 26q0 21 13 43t35 36 44 14q22 0 33-17t11-42q0-53-39-104z"/><glyph unicode="‚" glyph-name="quotesinglbase" horiz-adv-x="252" d="M129 2L90-49l-108-85-5 14q47 29 75 63t31 68Q54-14 31-14 13-14 3-5T-7 21q0 21 13 43t35 36 44 14q22 0 33-17t11-42q0-53-39-104z"/><glyph unicode="“" glyph-name="quotedblleft" horiz-adv-x="399" d="M290 593l39 51 108 85 5-14q-47-29-75-63t-31-68q29 25 52 25 13 0 20-9t8-26q0-21-12-43t-31-36-39-14q-44 0-44 59 0 53 39 104zm-166 0l39 51 108 85 5-14q-47-29-75-63t-31-68q29 25 52 25 13 0 20-9t8-26q0-21-12-43t-31-36-39-14q-44 0-44 59 0 53 39 104z"/><glyph unicode="”" glyph-name="quotedblright" horiz-adv-x="401" d="M273 601l-39-51-108-85-5 14q47 29 75 63t31 68q-29-25-52-25-13 0-20 9t-8 26q0 21 12 43t31 36 39 14q44 0 44-59 0-53-39-104zm166 0l-39-51-108-85-5 14q47 29 75 63t31 68q-29-25-52-25-13 0-20 9t-8 26q0 21 12 43t31 36 39 14q44 0 44-59 0-53-39-104z"/><glyph unicode="„" glyph-name="quotedblbase" horiz-adv-x="409" d="M120 2L81-49l-108-85-5 14q47 29 75 63t31 68Q45-14 22-14 9-14 2-5t-8 26q0 21 12 43t31 36 39 14q44 0 44-59 0-53-39-104zm166 0l-39-51-108-85-5 14q47 29 75 63t31 68q-29-25-52-25-13 0-20 9t-8 26q0 21 12 43t31 36 39 14q44 0 44-59 0-53-39-104z"/><glyph unicode="•" glyph-name="bullet" horiz-adv-x="445" d="M67 276l22 36 58 58 78 22q55 0 92-36t37-91q0-42-22-78t-58-58-78-22q-55 0-92 36t-37 91q0 42 22 78z"/><glyph unicode="‹" glyph-name="guilsinglleft" horiz-adv-x="352" d="M285 459l-66-88L99 244q41-34 83-114t58-144h-18Q135 157 24 243v2q77 54 144 124t132 159h18q-33-69-99-157z"/><glyph unicode="›" glyph-name="guilsinglright" horiz-adv-x="351" d="M199 355l110-85v-1q-77-54-144-124T33-14H15q33 69 99 157t120 127q-41 34-83 114T93 528h18q88-173 198-258z"/></font>
</defs>
</svg>
